<?xml version="1.0" encoding="UTF-8" standalone="no"?>
<!DOCTYPE svg PUBLIC "-//W3C//DTD SVG 1.1//EN" "http://www.w3.org/Graphics/SVG/1.1/DTD/svg11.dtd">
<svg xmlns="http://www.w3.org/2000/svg" version="1.1" viewBox="0.00 0.00 35.00 35.00" width="35.00" height="35.00">
<g stroke-width="0.00" fill="none" stroke-linecap="butt">
<path stroke="#7d91a3" vector-effect="non-scaling-stroke" d="
  M 7.09 19.47
  C 8.44 22.26 8.56 25.99 9.09 28.97
  A 0.73 0.72 -9.3 0 0 9.92 29.56
  Q 12.62 29.12 15.20 28.74
  C 18.77 28.22 21.87 29.10 25.39 29.68
  A 0.68 0.68 0.0 0 0 26.18 29.13
  C 26.80 25.69 27.06 22.29 28.53 19.12
  Q 29.64 16.71 30.92 14.30
  A 1.19 1.19 0.0 0 0 30.33 12.64
  Q 23.33 9.75 18.57 3.89
  A 1.04 1.04 0.0 0 0 16.99 3.84
  Q 15.21 5.82 13.20 7.72
  C 10.78 10.03 7.80 11.35 4.87 12.91
  A 0.90 0.90 0.0 0 0 4.48 14.09
  Q 5.77 16.76 7.09 19.47"
/>
<path stroke="#7d91a3" vector-effect="non-scaling-stroke" d="
  M 28.21 13.40
  C 24.02 11.55 21.24 9.34 18.20 5.95
  A 0.83 0.83 0.0 0 0 16.93 5.99
  Q 13.00 10.99 7.10 13.35
  A 1.00 1.00 0.0 0 0 6.63 14.82
  Q 10.07 20.16 10.23 26.56
  A 1.04 1.04 0.0 0 0 11.57 27.53
  Q 17.56 25.73 23.57 27.42
  A 1.08 1.07 -81.4 0 0 24.93 26.41
  Q 25.12 20.09 28.64 14.89
  A 1.01 1.01 0.0 0 0 28.21 13.40"
/>
<path stroke="#8ba1b0" vector-effect="non-scaling-stroke" d="
  M 20.44 16.64
  Q 21.04 15.97 20.93 15.06
  A 1.16 1.16 0.0 0 0 20.35 14.19
  Q 17.89 12.82 15.12 13.78
  Q 14.54 13.98 14.54 14.60
  L 14.56 20.42
  Q 14.56 21.00 15.10 21.20
  Q 18.22 22.38 20.94 20.39
  A 1.31 1.31 0.0 0 0 20.83 18.20
  Q 20.42 17.96 20.28 17.62
  Q 20.06 17.08 20.44 16.64"
/>
<path stroke="#7a90a0" vector-effect="non-scaling-stroke" d="
  M 17.16 15.32
  A 0.69 0.68 -54.3 0 0 17.37 16.62
  Q 18.07 16.71 18.38 16.14
  A 0.58 0.58 0.0 0 0 18.16 15.36
  Q 17.67 15.08 17.16 15.32"
/>
<path stroke="#7a90a0" vector-effect="non-scaling-stroke" d="
  M 17.20 18.43
  A 0.66 0.65 47.8 0 0 17.14 19.68
  Q 17.93 19.97 18.50 19.39
  Q 18.87 19.01 18.47 18.68
  Q 17.94 18.24 17.20 18.43"
/>
</g>
<path fill="#4e5964" d="
  M 0.00 0.00
  L 35.00 0.00
  L 35.00 35.00
  L 0.00 35.00
  L 0.00 0.00
  Z
  M 7.09 19.47
  C 8.44 22.26 8.56 25.99 9.09 28.97
  A 0.73 0.72 -9.3 0 0 9.92 29.56
  Q 12.62 29.12 15.20 28.74
  C 18.77 28.22 21.87 29.10 25.39 29.68
  A 0.68 0.68 0.0 0 0 26.18 29.13
  C 26.80 25.69 27.06 22.29 28.53 19.12
  Q 29.64 16.71 30.92 14.30
  A 1.19 1.19 0.0 0 0 30.33 12.64
  Q 23.33 9.75 18.57 3.89
  A 1.04 1.04 0.0 0 0 16.99 3.84
  Q 15.21 5.82 13.20 7.72
  C 10.78 10.03 7.80 11.35 4.87 12.91
  A 0.90 0.90 0.0 0 0 4.48 14.09
  Q 5.77 16.76 7.09 19.47
  Z"
/>
<path fill="#acc9e1" d="
  M 9.09 28.97
  C 8.56 25.99 8.44 22.26 7.09 19.47
  Q 5.77 16.76 4.48 14.09
  A 0.90 0.90 0.0 0 1 4.87 12.91
  C 7.80 11.35 10.78 10.03 13.20 7.72
  Q 15.21 5.82 16.99 3.84
  A 1.04 1.04 0.0 0 1 18.57 3.89
  Q 23.33 9.75 30.33 12.64
  A 1.19 1.19 0.0 0 1 30.92 14.30
  Q 29.64 16.71 28.53 19.12
  C 27.06 22.29 26.80 25.69 26.18 29.13
  A 0.68 0.68 0.0 0 1 25.39 29.68
  C 21.87 29.10 18.77 28.22 15.20 28.74
  Q 12.62 29.12 9.92 29.56
  A 0.73 0.72 -9.3 0 1 9.09 28.97
  Z
  M 28.21 13.40
  C 24.02 11.55 21.24 9.34 18.20 5.95
  A 0.83 0.83 0.0 0 0 16.93 5.99
  Q 13.00 10.99 7.10 13.35
  A 1.00 1.00 0.0 0 0 6.63 14.82
  Q 10.07 20.16 10.23 26.56
  A 1.04 1.04 0.0 0 0 11.57 27.53
  Q 17.56 25.73 23.57 27.42
  A 1.08 1.07 -81.4 0 0 24.93 26.41
  Q 25.12 20.09 28.64 14.89
  A 1.01 1.01 0.0 0 0 28.21 13.40
  Z"
/>
<path fill="#4e5964" d="
  M 18.20 5.95
  C 21.24 9.34 24.02 11.55 28.21 13.40
  A 1.01 1.01 0.0 0 1 28.64 14.89
  Q 25.12 20.09 24.93 26.41
  A 1.08 1.07 -81.4 0 1 23.57 27.42
  Q 17.56 25.73 11.57 27.53
  A 1.04 1.04 0.0 0 1 10.23 26.56
  Q 10.07 20.16 6.63 14.82
  A 1.00 1.00 0.0 0 1 7.10 13.35
  Q 13.00 10.99 16.93 5.99
  A 0.83 0.83 0.0 0 1 18.20 5.95
  Z
  M 20.44 16.64
  Q 21.04 15.97 20.93 15.06
  A 1.16 1.16 0.0 0 0 20.35 14.19
  Q 17.89 12.82 15.12 13.78
  Q 14.54 13.98 14.54 14.60
  L 14.56 20.42
  Q 14.56 21.00 15.10 21.20
  Q 18.22 22.38 20.94 20.39
  A 1.31 1.31 0.0 0 0 20.83 18.20
  Q 20.42 17.96 20.28 17.62
  Q 20.06 17.08 20.44 16.64
  Z"
/>
<path fill="#c7e9fc" d="
  M 20.28 17.62
  Q 20.42 17.96 20.83 18.20
  A 1.31 1.31 0.0 0 1 20.94 20.39
  Q 18.22 22.38 15.10 21.20
  Q 14.56 21.00 14.56 20.42
  L 14.54 14.60
  Q 14.54 13.98 15.12 13.78
  Q 17.89 12.82 20.35 14.19
  A 1.16 1.16 0.0 0 1 20.93 15.06
  Q 21.04 15.97 20.44 16.64
  Q 20.06 17.08 20.28 17.62
  Z
  M 17.16 15.32
  A 0.69 0.68 -54.3 0 0 17.37 16.62
  Q 18.07 16.71 18.38 16.14
  A 0.58 0.58 0.0 0 0 18.16 15.36
  Q 17.67 15.08 17.16 15.32
  Z
  M 17.20 18.43
  A 0.66 0.65 47.8 0 0 17.14 19.68
  Q 17.93 19.97 18.50 19.39
  Q 18.87 19.01 18.47 18.68
  Q 17.94 18.24 17.20 18.43
  Z"
/>
<path fill="#2c3744" d="
  M 17.16 15.32
  Q 17.67 15.08 18.16 15.36
  A 0.58 0.58 0.0 0 1 18.38 16.14
  Q 18.07 16.71 17.37 16.62
  A 0.69 0.68 -54.3 0 1 17.16 15.32
  Z"
/>
<path fill="#2c3744" d="
  M 17.20 18.43
  Q 17.94 18.24 18.47 18.68
  Q 18.87 19.01 18.50 19.39
  Q 17.93 19.97 17.14 19.68
  A 0.66 0.65 47.8 0 1 17.20 18.43
  Z"
/>
</svg>
