<?xml version="1.0" encoding="UTF-8" standalone="no"?>
<!DOCTYPE svg PUBLIC "-//W3C//DTD SVG 1.1//EN" "http://www.w3.org/Graphics/SVG/1.1/DTD/svg11.dtd">
<svg xmlns="http://www.w3.org/2000/svg" version="1.1" viewBox="0.00 0.00 135.00 129.00" width="135.00" height="129.00">
<g stroke-width="3.20" fill="none" stroke-linecap="butt">
<path stroke="#859cae" vector-effect="non-scaling-stroke" d="
  M 123.40 47.72
  Q 108.29 39.88 94.61 32.86
  Q 92.06 31.55 89.63 29.16
  Q 78.23 17.90 66.85 6.64
  Q 66.49 6.28 66.13 6.63
  Q 54.56 17.98 42.95 29.29
  Q 40.38 31.79 37.72 33.13
  Q 23.52 40.35 9.13 47.83
  Q 8.75 48.02 8.94 48.41
  Q 16.15 62.98 23.47 77.63
  Q 24.89 80.48 25.43 83.89
  Q 28.05 100.42 30.73 115.72
  A 0.29 0.29 0.0 0 0 31.06 115.96
  Q 46.89 113.59 63.75 110.89
  Q 66.50 110.45 69.31 110.90
  Q 86.74 113.69 101.70 115.95
  Q 102.00 116.00 102.05 115.70
  Q 104.93 98.93 107.39 83.55
  Q 107.92 80.22 109.43 77.23
  Q 116.82 62.56 123.69 48.59
  Q 123.97 48.01 123.40 47.72"
/>
<path stroke="#859cae" vector-effect="non-scaling-stroke" d="
  M 65.41 9.20
  Q 54.62 19.57 43.81 30.33
  Q 41.66 32.48 38.68 34.01
  Q 24.34 41.39 10.85 48.27
  Q 10.41 48.50 10.63 48.94
  Q 17.57 62.42 24.79 76.88
  Q 26.38 80.06 26.84 82.95
  Q 29.27 97.96 31.93 113.61
  A 0.38 0.37 -8.8 0 0 32.35 113.91
  Q 47.74 111.64 63.29 109.14
  Q 66.40 108.64 69.35 109.10
  Q 84.99 111.55 100.61 113.92
  A 0.38 0.37 -81.3 0 0 101.03 113.61
  Q 103.55 98.24 105.90 83.03
  Q 106.37 79.99 108.04 76.64
  Q 115.14 62.44 122.11 48.90
  Q 122.30 48.53 121.93 48.34
  L 91.59 32.75
  A 1.16 1.06 78.4 0 1 91.30 32.54
  L 66.64 8.15
  Q 66.42 7.93 66.18 8.13
  Q 66.06 8.23 65.99 8.38
  Q 65.79 8.84 65.41 9.20"
/>
<path stroke="#859cae" vector-effect="non-scaling-stroke" d="
  M 12.84 48.67
  A 0.68 0.68 0.0 0 0 12.54 49.57
  Q 19.21 63.07 25.88 76.42
  Q 27.24 79.13 27.68 81.87
  Q 30.28 97.82 32.64 112.22
  Q 32.73 112.76 33.28 112.69
  Q 48.94 110.49 63.79 108.17
  Q 66.58 107.74 69.44 108.19
  Q 84.95 110.64 99.52 112.71
  Q 100.04 112.78 100.13 112.26
  Q 102.61 97.15 104.94 82.47
  Q 105.43 79.43 107.05 76.20
  Q 113.77 62.77 120.60 49.45
  Q 120.83 49.00 120.38 48.77
  Q 107.02 41.94 93.66 35.11
  Q 90.50 33.50 88.38 31.39
  Q 77.38 20.44 66.83 9.70
  Q 66.51 9.38 66.18 9.70
  Q 55.16 20.72 44.24 31.61
  Q 42.37 33.48 40.01 34.69
  Q 26.46 41.62 12.84 48.67"
/>
<path stroke="#859cae" vector-effect="non-scaling-stroke" d="
  M 102.34 76.83
  L 115.77 50.49
  A 0.52 0.51 27.6 0 0 115.55 49.80
  Q 103.93 43.69 91.54 37.38
  Q 88.65 35.90 86.26 33.52
  Q 77.18 24.46 68.04 15.51
  Q 67.43 14.92 66.94 14.22
  Q 66.64 13.82 66.29 14.17
  Q 56.35 23.98 46.70 33.54
  Q 44.35 35.87 41.65 37.25
  Q 29.32 43.59 17.38 49.81
  A 0.44 0.43 62.5 0 0 17.20 50.39
  Q 23.01 62.13 29.36 74.62
  Q 30.80 77.45 31.26 80.35
  Q 33.41 93.97 35.70 107.72
  A 0.28 0.28 0.0 0 0 36.02 107.95
  Q 49.04 106.15 63.04 103.95
  Q 66.43 103.42 69.72 103.94
  Q 83.23 106.05 96.81 107.97
  A 0.22 0.21 7.9 0 0 97.06 107.79
  L 101.87 78.27
  A 4.82 4.73 63.6 0 1 102.34 76.83"
/>
<path stroke="#859cae" vector-effect="non-scaling-stroke" d="
  M 75.71 64.30
  Q 79.24 62.83 79.70 59.27
  C 81.16 47.93 66.97 48.69 59.99 49.19
  C 58.50 49.30 56.96 49.85 55.57 50.39
  A 2.66 2.66 0.0 0 0 53.88 52.87
  Q 53.87 65.49 53.88 77.09
  C 53.88 80.62 58.43 81.72 61.07 81.89
  C 66.67 82.25 78.24 82.81 80.33 75.49
  Q 82.53 67.82 75.71 64.86
  Q 75.05 64.57 75.71 64.30"
/>
<path stroke="#859cae" vector-effect="non-scaling-stroke" d="
  M 63.03 56.51
  L 63.05 61.51
  A 0.51 0.51 0.0 0 0 63.57 62.02
  L 66.86 62.00
  A 3.66 2.73 -0.3 0 0 70.50 59.25
  L 70.50 58.69
  A 3.66 2.73 -0.3 0 0 66.82 55.98
  L 63.53 56.00
  A 0.51 0.51 0.0 0 0 63.03 56.51"
/>
<path stroke="#859cae" vector-effect="non-scaling-stroke" d="
  M 63.09 69.19
  L 63.07 74.69
  A 0.27 0.27 0.0 0 0 63.33 74.96
  L 67.47 74.98
  A 3.83 2.61 0.3 0 0 71.32 72.39
  L 71.32 71.57
  A 3.83 2.61 0.3 0 0 67.51 68.94
  L 63.37 68.92
  A 0.27 0.27 0.0 0 0 63.09 69.19"
/>
</g>
<path fill="#4e5964" d="
  M 0.00 0.00
  L 135.00 0.00
  L 135.00 129.00
  L 0.00 129.00
  L 0.00 0.00
  Z
  M 123.40 47.72
  Q 108.29 39.88 94.61 32.86
  Q 92.06 31.55 89.63 29.16
  Q 78.23 17.90 66.85 6.64
  Q 66.49 6.28 66.13 6.63
  Q 54.56 17.98 42.95 29.29
  Q 40.38 31.79 37.72 33.13
  Q 23.52 40.35 9.13 47.83
  Q 8.75 48.02 8.94 48.41
  Q 16.15 62.98 23.47 77.63
  Q 24.89 80.48 25.43 83.89
  Q 28.05 100.42 30.73 115.72
  A 0.29 0.29 0.0 0 0 31.06 115.96
  Q 46.89 113.59 63.75 110.89
  Q 66.50 110.45 69.31 110.90
  Q 86.74 113.69 101.70 115.95
  Q 102.00 116.00 102.05 115.70
  Q 104.93 98.93 107.39 83.55
  Q 107.92 80.22 109.43 77.23
  Q 116.82 62.56 123.69 48.59
  Q 123.97 48.01 123.40 47.72
  Z"
/>
<path fill="#bcdef8" d="
  M 123.40 47.72
  Q 123.97 48.01 123.69 48.59
  Q 116.82 62.56 109.43 77.23
  Q 107.92 80.22 107.39 83.55
  Q 104.93 98.93 102.05 115.70
  Q 102.00 116.00 101.70 115.95
  Q 86.74 113.69 69.31 110.90
  Q 66.50 110.45 63.75 110.89
  Q 46.89 113.59 31.06 115.96
  A 0.29 0.29 0.0 0 1 30.73 115.72
  Q 28.05 100.42 25.43 83.89
  Q 24.89 80.48 23.47 77.63
  Q 16.15 62.98 8.94 48.41
  Q 8.75 48.02 9.13 47.83
  Q 23.52 40.35 37.72 33.13
  Q 40.38 31.79 42.95 29.29
  Q 54.56 17.98 66.13 6.63
  Q 66.49 6.28 66.85 6.64
  Q 78.23 17.90 89.63 29.16
  Q 92.06 31.55 94.61 32.86
  Q 108.29 39.88 123.40 47.72
  Z
  M 65.41 9.20
  Q 54.62 19.57 43.81 30.33
  Q 41.66 32.48 38.68 34.01
  Q 24.34 41.39 10.85 48.27
  Q 10.41 48.50 10.63 48.94
  Q 17.57 62.42 24.79 76.88
  Q 26.38 80.06 26.84 82.95
  Q 29.27 97.96 31.93 113.61
  A 0.38 0.37 -8.8 0 0 32.35 113.91
  Q 47.74 111.64 63.29 109.14
  Q 66.40 108.64 69.35 109.10
  Q 84.99 111.55 100.61 113.92
  A 0.38 0.37 -81.3 0 0 101.03 113.61
  Q 103.55 98.24 105.90 83.03
  Q 106.37 79.99 108.04 76.64
  Q 115.14 62.44 122.11 48.90
  Q 122.30 48.53 121.93 48.34
  L 91.59 32.75
  A 1.16 1.06 78.4 0 1 91.30 32.54
  L 66.64 8.15
  Q 66.42 7.93 66.18 8.13
  Q 66.06 8.23 65.99 8.38
  Q 65.79 8.84 65.41 9.20
  Z"
/>
<path fill="#4e5964" d="
  M 65.99 8.38
  Q 66.06 8.23 66.18 8.13
  Q 66.42 7.93 66.64 8.15
  L 91.30 32.54
  A 1.16 1.06 78.4 0 0 91.59 32.75
  L 121.93 48.34
  Q 122.30 48.53 122.11 48.90
  Q 115.14 62.44 108.04 76.64
  Q 106.37 79.99 105.90 83.03
  Q 103.55 98.24 101.03 113.61
  A 0.38 0.37 -81.3 0 1 100.61 113.92
  Q 84.99 111.55 69.35 109.10
  Q 66.40 108.64 63.29 109.14
  Q 47.74 111.64 32.35 113.91
  A 0.38 0.37 -8.8 0 1 31.93 113.61
  Q 29.27 97.96 26.84 82.95
  Q 26.38 80.06 24.79 76.88
  Q 17.57 62.42 10.63 48.94
  Q 10.41 48.50 10.85 48.27
  Q 24.34 41.39 38.68 34.01
  Q 41.66 32.48 43.81 30.33
  Q 54.62 19.57 65.41 9.20
  Q 65.79 8.84 65.99 8.38
  Z
  M 12.84 48.67
  A 0.68 0.68 0.0 0 0 12.54 49.57
  Q 19.21 63.07 25.88 76.42
  Q 27.24 79.13 27.68 81.87
  Q 30.28 97.82 32.64 112.22
  Q 32.73 112.76 33.28 112.69
  Q 48.94 110.49 63.79 108.17
  Q 66.58 107.74 69.44 108.19
  Q 84.95 110.64 99.52 112.71
  Q 100.04 112.78 100.13 112.26
  Q 102.61 97.15 104.94 82.47
  Q 105.43 79.43 107.05 76.20
  Q 113.77 62.77 120.60 49.45
  Q 120.83 49.00 120.38 48.77
  Q 107.02 41.94 93.66 35.11
  Q 90.50 33.50 88.38 31.39
  Q 77.38 20.44 66.83 9.70
  Q 66.51 9.38 66.18 9.70
  Q 55.16 20.72 44.24 31.61
  Q 42.37 33.48 40.01 34.69
  Q 26.46 41.62 12.84 48.67
  Z"
/>
<path fill="#bcdef8" d="
  M 12.84 48.67
  Q 26.46 41.62 40.01 34.69
  Q 42.37 33.48 44.24 31.61
  Q 55.16 20.72 66.18 9.70
  Q 66.51 9.38 66.83 9.70
  Q 77.38 20.44 88.38 31.39
  Q 90.50 33.50 93.66 35.11
  Q 107.02 41.94 120.38 48.77
  Q 120.83 49.00 120.60 49.45
  Q 113.77 62.77 107.05 76.20
  Q 105.43 79.43 104.94 82.47
  Q 102.61 97.15 100.13 112.26
  Q 100.04 112.78 99.52 112.71
  Q 84.95 110.64 69.44 108.19
  Q 66.58 107.74 63.79 108.17
  Q 48.94 110.49 33.28 112.69
  Q 32.73 112.76 32.64 112.22
  Q 30.28 97.82 27.68 81.87
  Q 27.24 79.13 25.88 76.42
  Q 19.21 63.07 12.54 49.57
  A 0.68 0.68 0.0 0 1 12.84 48.67
  Z
  M 102.34 76.83
  L 115.77 50.49
  A 0.52 0.51 27.6 0 0 115.55 49.80
  Q 103.93 43.69 91.54 37.38
  Q 88.65 35.90 86.26 33.52
  Q 77.18 24.46 68.04 15.51
  Q 67.43 14.92 66.94 14.22
  Q 66.64 13.82 66.29 14.17
  Q 56.35 23.98 46.70 33.54
  Q 44.35 35.87 41.65 37.25
  Q 29.32 43.59 17.38 49.81
  A 0.44 0.43 62.5 0 0 17.20 50.39
  Q 23.01 62.13 29.36 74.62
  Q 30.80 77.45 31.26 80.35
  Q 33.41 93.97 35.70 107.72
  A 0.28 0.28 0.0 0 0 36.02 107.95
  Q 49.04 106.15 63.04 103.95
  Q 66.43 103.42 69.72 103.94
  Q 83.23 106.05 96.81 107.97
  A 0.22 0.21 7.9 0 0 97.06 107.79
  L 101.87 78.27
  A 4.82 4.73 63.6 0 1 102.34 76.83
  Z"
/>
<path fill="#4e5964" d="
  M 102.34 76.83
  A 4.82 4.73 63.6 0 0 101.87 78.27
  L 97.06 107.79
  A 0.22 0.21 7.9 0 1 96.81 107.97
  Q 83.23 106.05 69.72 103.94
  Q 66.43 103.42 63.04 103.95
  Q 49.04 106.15 36.02 107.95
  A 0.28 0.28 0.0 0 1 35.70 107.72
  Q 33.41 93.97 31.26 80.35
  Q 30.80 77.45 29.36 74.62
  Q 23.01 62.13 17.20 50.39
  A 0.44 0.43 62.5 0 1 17.38 49.81
  Q 29.32 43.59 41.65 37.25
  Q 44.35 35.87 46.70 33.54
  Q 56.35 23.98 66.29 14.17
  Q 66.64 13.82 66.94 14.22
  Q 67.43 14.92 68.04 15.51
  Q 77.18 24.46 86.26 33.52
  Q 88.65 35.90 91.54 37.38
  Q 103.93 43.69 115.55 49.80
  A 0.52 0.51 27.6 0 1 115.77 50.49
  L 102.34 76.83
  Z
  M 75.71 64.30
  Q 79.24 62.83 79.70 59.27
  C 81.16 47.93 66.97 48.69 59.99 49.19
  C 58.50 49.30 56.96 49.85 55.57 50.39
  A 2.66 2.66 0.0 0 0 53.88 52.87
  Q 53.87 65.49 53.88 77.09
  C 53.88 80.62 58.43 81.72 61.07 81.89
  C 66.67 82.25 78.24 82.81 80.33 75.49
  Q 82.53 67.82 75.71 64.86
  Q 75.05 64.57 75.71 64.30
  Z"
/>
<path fill="#bcdef8" d="
  M 75.71 64.86
  Q 82.53 67.82 80.33 75.49
  C 78.24 82.81 66.67 82.25 61.07 81.89
  C 58.43 81.72 53.88 80.62 53.88 77.09
  Q 53.87 65.49 53.88 52.87
  A 2.66 2.66 0.0 0 1 55.57 50.39
  C 56.96 49.85 58.50 49.30 59.99 49.19
  C 66.97 48.69 81.16 47.93 79.70 59.27
  Q 79.24 62.83 75.71 64.30
  Q 75.05 64.57 75.71 64.86
  Z
  M 63.03 56.51
  L 63.05 61.51
  A 0.51 0.51 0.0 0 0 63.57 62.02
  L 66.86 62.00
  A 3.66 2.73 -0.3 0 0 70.50 59.25
  L 70.50 58.69
  A 3.66 2.73 -0.3 0 0 66.82 55.98
  L 63.53 56.00
  A 0.51 0.51 0.0 0 0 63.03 56.51
  Z
  M 63.09 69.19
  L 63.07 74.69
  A 0.27 0.27 0.0 0 0 63.33 74.96
  L 67.47 74.98
  A 3.83 2.61 0.3 0 0 71.32 72.39
  L 71.32 71.57
  A 3.83 2.61 0.3 0 0 67.51 68.94
  L 63.37 68.92
  A 0.27 0.27 0.0 0 0 63.09 69.19
  Z"
/>
<path fill="#4e5964" d="
  M 63.03 56.51
  A 0.51 0.51 0.0 0 1 63.53 56.00
  L 66.82 55.98
  A 3.66 2.73 -0.3 0 1 70.50 58.69
  L 70.50 59.25
  A 3.66 2.73 -0.3 0 1 66.86 62.00
  L 63.57 62.02
  A 0.51 0.51 0.0 0 1 63.05 61.51
  L 63.03 56.51
  Z"
/>
<path fill="#4e5964" d="
  M 63.09 69.19
  A 0.27 0.27 0.0 0 1 63.37 68.92
  L 67.51 68.94
  A 3.83 2.61 0.3 0 1 71.32 71.57
  L 71.32 72.39
  A 3.83 2.61 0.3 0 1 67.47 74.98
  L 63.33 74.96
  A 0.27 0.27 0.0 0 1 63.07 74.69
  L 63.09 69.19
  Z"
/>
</svg>
