<?xml version="1.0" encoding="UTF-8" standalone="no"?>
<!DOCTYPE svg PUBLIC "-//W3C//DTD SVG 1.1//EN" "http://www.w3.org/Graphics/SVG/1.1/DTD/svg11.dtd">
<svg xmlns="http://www.w3.org/2000/svg" version="1.1" viewBox="0.00 0.00 602.00 196.00">
<g stroke-width="3.70" fill="none" stroke-linecap="butt">
<path stroke="#859cae" vector-effect="non-scaling-stroke" d="
  M 161.42 70.74
  Q 146.17 62.81 132.97 56.01
  Q 130.00 54.49 127.64 52.15
  Q 116.24 40.90 104.83 29.64
  Q 104.47 29.29 104.12 29.64
  Q 92.49 41.00 80.85 52.37
  Q 78.46 54.71 75.47 56.24
  Q 61.25 63.51 47.09 70.84
  Q 46.74 71.02 46.92 71.38
  L 62.40 102.57
  A 5.44 5.29 27.9 0 1 62.90 104.12
  L 68.69 138.74
  A 0.28 0.28 0.0 0 0 69.01 138.97
  Q 85.06 136.50 101.17 134.01
  Q 104.50 133.49 107.82 134.01
  Q 123.78 136.51 139.69 138.97
  Q 140.02 139.02 140.08 138.69
  Q 142.74 122.72 145.43 106.69
  Q 146.01 103.23 147.56 100.10
  Q 154.67 85.70 161.70 71.61
  Q 161.99 71.04 161.42 70.74"
/>
<path stroke="#859cae" vector-effect="non-scaling-stroke" d="
  M 460.0048 67.6462
  A 3.70 3.70 0.0 0 0 456.2599 63.9916
  L 454.8400 64.0090
  A 3.70 3.70 0.0 0 0 451.1854 67.7539
  L 451.1952 68.5538
  A 3.70 3.70 0.0 0 0 454.9401 72.2084
  L 456.3600 72.1910
  A 3.70 3.70 0.0 0 0 460.0146 68.4461
  L 460.0048 67.6462"
/>
<path stroke="#859cae" vector-effect="non-scaling-stroke" d="
  M 218.52 85.32
  C 226.34 80.59 225.72 67.52 216.22 65.27
  Q 209.16 63.59 200.86 65.34
  Q 200.48 65.42 200.48 65.80
  L 200.48 108.23
  Q 200.48 108.68 200.92 108.80
  C 209.52 111.07 223.68 110.55 224.64 98.75
  C 225.13 92.77 224.42 87.86 218.57 85.82
  Q 218.01 85.62 218.52 85.32"
/>
<path stroke="#859cae" vector-effect="non-scaling-stroke" d="
  M 269.18 70.02
  Q 269.29 86.01 269.24 102.00
  C 269.21 110.59 279.08 110.89 285.01 108.61
  Q 285.26 108.52 285.26 108.26
  L 285.24 104.48
  A 0.23 0.23 0.0 0 0 284.93 104.27
  C 281.96 105.48 274.47 106.52 274.46 101.50
  Q 274.42 83.52 274.48 65.51
  A 0.47 0.47 0.0 0 0 274.01 65.04
  L 259.83 65.05
  Q 259.46 65.05 259.46 65.42
  L 259.49 69.02
  Q 259.49 69.55 260.02 69.55
  L 268.72 69.56
  Q 269.18 69.56 269.18 70.02"
/>
<path stroke="#859cae" vector-effect="non-scaling-stroke" d="
  M 507.77 108.98
  A 0.31 0.31 0.0 0 0 508.08 108.67
  L 508.00 95.51
  A 0.31 0.31 0.0 0 1 508.54 95.29
  L 521.66 108.93
  A 0.31 0.31 0.0 0 0 521.88 109.03
  L 527.15 108.96
  A 0.31 0.31 0.0 0 0 527.37 108.44
  L 512.78 93.02
  A 0.31 0.31 0.0 0 1 512.78 92.59
  L 527.09 78.26
  A 0.31 0.31 0.0 0 0 526.87 77.73
  L 521.47 77.73
  A 0.31 0.31 0.0 0 0 521.25 77.82
  L 508.53 90.40
  A 0.31 0.31 0.0 0 1 508.00 90.18
  L 508.14 65.41
  A 0.31 0.31 0.0 0 0 507.83 65.10
  L 503.05 65.04
  A 0.31 0.31 0.0 0 0 502.74 65.35
  L 502.78 108.69
  A 0.31 0.31 0.0 0 0 503.09 109.00
  L 507.77 108.98"
/>
<path stroke="#859cae" vector-effect="non-scaling-stroke" d="
  M 326.75 77.73
  L 319.77 77.75
  Q 319.29 77.75 319.29 78.23
  L 319.26 81.50
  Q 319.26 82.00 319.75 82.00
  L 326.72 82.00
  Q 327.20 82.00 327.20 82.48
  Q 327.26 91.73 327.19 101.02
  C 327.12 110.88 337.32 110.91 343.97 108.70
  Q 344.26 108.60 344.26 108.30
  L 344.25 104.49
  A 0.21 0.21 0.0 0 0 343.97 104.30
  C 341.57 105.16 334.17 106.51 332.80 103.00
  Q 332.41 102.01 332.37 99.25
  Q 332.26 91.12 332.21 82.32
  A 0.31 0.30 90.0 0 1 332.51 82.01
  L 343.77 81.99
  Q 344.28 81.99 344.28 81.48
  L 344.25 78.25
  Q 344.25 77.74 343.74 77.74
  L 332.72 77.74
  Q 332.20 77.74 332.20 77.22
  L 332.23 67.97
  Q 332.23 67.46 331.72 67.46
  L 327.51 67.45
  Q 327.21 67.45 327.21 67.74
  L 327.22 77.25
  Q 327.23 77.73 326.75 77.73"
/>
<path stroke="#859cae" vector-effect="non-scaling-stroke" d="
  M 254.12 88.26
  A 11.16 11.16 0.0 0 0 242.96 77.10
  L 241.06 77.10
  A 11.16 11.16 0.0 0 0 229.90 88.26
  L 229.90 98.54
  A 11.16 11.16 0.0 0 0 241.06 109.70
  L 242.96 109.70
  A 11.16 11.16 0.0 0 0 254.12 98.54
  L 254.12 88.26"
/>
<path stroke="#859cae" vector-effect="non-scaling-stroke" d="
  M 297.70 95.55
  L 313.94 95.55
  Q 314.34 95.55 314.37 95.15
  C 315.01 87.83 313.93 78.55 305.03 77.16
  C 291.51 75.06 289.87 87.02 290.62 97.01
  C 291.58 109.86 302.22 111.19 312.50 108.77
  Q 312.73 108.71 312.73 108.47
  L 312.70 104.60
  A 0.18 0.18 0.0 0 0 312.48 104.43
  Q 306.88 105.88 301.22 105.01
  A 5.27 5.26 -6.0 0 1 297.11 101.69
  L 295.81 98.29
  Q 294.76 95.55 297.70 95.55"
/>
<path stroke="#859cae" vector-effect="non-scaling-stroke" d="
  M 367.31 89.28
  C 362.87 88.81 356.24 89.76 352.87 93.14
  Q 349.42 96.60 350.72 101.52
  C 353.29 111.27 365.93 110.93 373.28 107.94
  A 0.74 0.73 79.8 0 0 373.74 107.27
  Q 373.90 92.59 373.69 84.76
  C 373.42 74.59 359.16 76.66 353.18 78.50
  Q 352.29 78.77 352.28 79.70
  L 352.27 82.28
  A 0.74 0.74 0.0 0 0 353.26 82.97
  Q 359.56 80.70 366.16 81.78
  A 2.69 2.68 -88.6 0 1 368.39 84.13
  L 368.80 87.78
  Q 368.99 89.45 367.31 89.28"
/>
<path stroke="#859cae" vector-effect="non-scaling-stroke" d="
  M 398.57 82.49
  L 398.56 87.25
  Q 398.56 87.95 399.25 87.96
  L 403.00 87.97
  Q 403.72 87.98 403.72 87.25
  L 403.72 79.01
  Q 403.72 78.53 403.26 78.39
  C 397.03 76.42 381.44 75.02 382.06 85.53
  C 382.49 92.77 390.40 94.47 395.94 96.55
  C 400.38 98.21 400.87 104.01 395.73 104.96
  Q 389.79 106.05 383.05 103.65
  Q 382.77 103.55 382.77 103.85
  L 382.74 107.75
  Q 382.74 107.97 382.95 108.05
  C 388.02 110.00 402.11 111.54 404.14 104.33
  C 406.84 94.71 398.28 92.36 391.49 90.02
  C 387.94 88.80 384.66 83.51 390.00 82.04
  Q 393.40 81.10 398.04 81.87
  Q 398.57 81.95 398.57 82.49"
/>
<path stroke="#859cae" vector-effect="non-scaling-stroke" d="
  M 478.03 82.32
  C 480.23 81.66 487.73 80.65 489.17 83.35
  Q 490.35 85.56 490.32 89.00
  Q 490.21 99.01 490.22 108.68
  Q 490.22 109.00 490.53 109.00
  L 494.81 109.00
  Q 495.22 109.00 495.23 108.59
  Q 495.33 97.17 494.95 85.48
  C 494.59 74.42 480.10 76.42 473.30 78.60
  Q 472.48 78.87 472.48 79.73
  L 472.48 108.74
  A 0.26 0.26 0.0 0 0 472.74 109.00
  L 477.26 109.00
  Q 477.53 109.00 477.53 108.73
  L 477.52 83.00
  A 0.71 0.71 0.0 0 1 478.03 82.32"
/>
<path stroke="#859cae" vector-effect="non-scaling-stroke" d="
  M 458.71 108.99
  A 0.41 0.41 0.0 0 0 459.12 108.58
  L 458.99 78.15
  A 0.41 0.41 0.0 0 0 458.58 77.74
  L 443.64 77.74
  A 0.41 0.41 0.0 0 0 443.23 78.15
  L 443.19 81.59
  A 0.41 0.41 0.0 0 0 443.60 82.00
  L 453.56 82.01
  A 0.41 0.41 0.0 0 1 453.97 82.42
  L 453.93 108.58
  A 0.41 0.41 0.0 0 0 454.34 108.99
  L 458.71 108.99"
/>
<path stroke="#859cae" vector-effect="non-scaling-stroke" d="
  M 428.35 105.04
  A 4.87 4.87 0.0 0 0 423.48 100.17
  A 4.87 4.87 0.0 0 0 418.61 105.04
  A 4.87 4.87 0.0 0 0 423.48 109.91
  A 4.87 4.87 0.0 0 0 428.35 105.04"
/>
<path stroke="#859cae" vector-effect="non-scaling-stroke" d="
  M 235.67 141.42
  A 0.42 0.42 0.0 0 1 236.09 141.00
  L 239.74 141.00
  A 0.42 0.42 0.0 0 0 240.16 140.61
  L 240.25 139.44
  A 0.42 0.42 0.0 0 0 239.83 138.99
  L 228.48 139.02
  A 0.42 0.42 0.0 0 0 228.07 139.48
  L 228.18 140.59
  A 0.42 0.42 0.0 0 0 228.59 140.97
  L 232.50 141.04
  A 0.42 0.42 0.0 0 1 232.91 141.46
  L 232.99 156.58
  A 0.42 0.42 0.0 0 0 233.41 157.00
  L 235.27 156.99
  A 0.42 0.42 0.0 0 0 235.69 156.57
  L 235.67 141.42"
/>
<path stroke="#859cae" vector-effect="non-scaling-stroke" d="
  M 289.41 147.25
  C 293.31 145.40 291.00 139.47 287.76 139.06
  Q 279.19 137.99 279.44 146.51
  Q 279.58 151.57 279.39 156.31
  Q 279.36 156.98 280.03 156.99
  L 281.49 157.01
  Q 282.24 157.01 282.26 156.26
  Q 282.39 150.21 282.47 144.13
  Q 282.49 141.98 284.51 141.25
  C 289.35 139.50 290.76 147.57 284.27 147.03
  A 0.78 0.78 0.0 0 0 283.44 147.65
  L 283.35 148.09
  A 0.70 0.70 0.0 0 0 284.01 148.93
  C 286.22 148.99 288.82 148.85 289.40 151.00
  C 290.52 155.13 286.44 155.09 283.55 155.02
  A 0.87 0.87 0.0 0 0 282.66 155.84
  L 282.63 156.26
  Q 282.60 156.89 283.23 156.94
  C 287.47 157.27 292.10 157.38 292.39 152.51
  Q 292.56 149.58 289.40 147.43
  Q 289.25 147.33 289.41 147.25"
/>
<path stroke="#859cae" vector-effect="non-scaling-stroke" d="
  M 318.32 155.11
  C 315.85 154.46 315.77 153.32 315.77 151.00
  Q 315.78 145.02 315.77 139.28
  A 0.28 0.28 0.0 0 0 315.49 139.00
  L 313.47 139.03
  Q 313.16 139.03 313.16 139.34
  Q 313.13 145.73 313.15 152.25
  Q 313.17 157.26 317.96 156.97
  Q 318.48 156.93 318.74 156.65
  Q 319.09 156.27 318.97 155.77
  Q 318.85 155.24 318.32 155.11"
/>
<path stroke="#859cae" vector-effect="non-scaling-stroke" d="
  M 442.88 146.63
  Q 442.27 157.50 452.80 157.03
  A 1.05 1.05 0.0 0 0 453.80 156.06
  L 453.83 155.71
  A 0.65 0.65 0.0 0 0 453.14 155.02
  C 443.15 155.75 442.97 140.78 452.71 140.98
  Q 453.53 141.00 453.78 140.22
  L 453.87 139.95
  A 0.59 0.59 0.0 0 0 453.42 139.19
  C 448.03 138.10 443.20 140.86 442.88 146.63"
/>
<path stroke="#859cae" vector-effect="non-scaling-stroke" d="
  M 460.52 153.23
  L 460.42 139.23
  Q 460.42 139.05 460.23 139.04
  L 458.21 139.00
  Q 457.90 138.99 457.91 139.29
  Q 457.99 145.97 458.00 152.75
  Q 458.01 156.88 462.26 157.00
  Q 463.50 157.04 463.62 155.93
  A 0.74 0.73 10.4 0 0 463.07 155.14
  Q 462.02 154.88 461.10 154.28
  Q 460.53 153.91 460.52 153.23"
/>
<path stroke="#859cae" vector-effect="non-scaling-stroke" d="
  M 470.14 140.51
  A 1.61 1.61 0.0 0 0 468.53 138.90
  A 1.61 1.61 0.0 0 0 466.92 140.51
  A 1.61 1.61 0.0 0 0 468.53 142.12
  A 1.61 1.61 0.0 0 0 470.14 140.51"
/>
<path stroke="#859cae" vector-effect="non-scaling-stroke" d="
  M 495.90 148.88
  L 498.52 144.53
  Q 498.82 144.03 498.24 144.02
  L 496.49 144.00
  A 1.16 1.16 0.0 0 0 495.43 144.66
  Q 494.66 146.29 493.67 148.15
  Q 493.35 148.75 492.92 148.92
  Q 492.39 149.13 491.85 148.99
  Q 491.31 148.84 491.31 148.28
  L 491.27 139.51
  Q 491.26 139.01 490.76 139.01
  L 489.04 139.02
  Q 488.60 139.02 488.60 139.46
  L 488.61 156.43
  Q 488.61 157.00 489.18 156.99
  L 490.73 156.99
  Q 491.35 156.99 491.34 156.37
  L 491.30 151.47
  Q 491.29 150.95 491.81 150.96
  Q 497.10 151.11 496.10 156.49
  A 0.42 0.41 -84.7 0 0 496.50 156.98
  L 498.33 157.00
  Q 498.55 157.00 498.61 156.78
  Q 499.71 152.09 496.04 149.51
  Q 495.68 149.26 495.90 148.88"
/>
<path stroke="#859cae" vector-effect="non-scaling-stroke" d="
  M 340.27 146.00
  L 342.53 146.00
  Q 343.52 146.00 343.54 145.01
  L 343.55 144.63
  Q 343.56 144.04 342.96 144.03
  L 340.33 143.99
  A 0.61 0.60 -86.5 0 1 339.74 143.32
  L 339.83 142.51
  A 0.36 0.36 0.0 0 0 339.25 142.19
  L 335.23 145.30
  Q 334.57 145.82 335.40 145.89
  L 336.77 146.01
  Q 337.25 146.06 337.24 146.54
  C 337.12 150.67 335.99 157.38 342.59 157.00
  Q 343.49 156.95 343.59 156.05
  L 343.63 155.64
  Q 343.69 155.13 343.18 155.10
  C 338.59 154.83 339.72 149.51 339.78 146.49
  Q 339.79 146.00 340.27 146.00"
/>
<path stroke="#859cae" vector-effect="non-scaling-stroke" d="
  M 249.89 155.06
  L 247.97 154.89
  A 2.18 2.17 2.5 0 1 245.98 152.73
  L 245.98 144.25
  Q 245.98 144.03 245.75 144.02
  L 243.70 144.01
  Q 243.37 144.01 243.35 144.34
  C 243.22 146.77 242.77 153.47 244.26 155.43
  C 245.88 157.57 250.36 157.13 253.56 156.91
  Q 253.97 156.88 253.97 156.47
  L 253.99 144.50
  Q 253.99 144.01 253.50 144.01
  L 251.98 144.02
  Q 251.49 144.03 251.49 144.52
  L 251.48 153.61
  Q 251.47 155.19 249.89 155.06"
/>
<path stroke="#859cae" vector-effect="non-scaling-stroke" d="
  M 265.19 153.77
  A 1.68 1.68 0.0 0 1 263.65 154.92
  L 258.53 155.12
  A 0.48 0.48 0.0 0 0 258.07 155.65
  L 258.11 156.08
  Q 258.19 156.95 259.06 156.97
  C 262.45 157.05 268.88 158.08 267.80 152.23
  C 267.42 150.21 263.82 149.29 262.07 148.62
  Q 260.43 148.01 261.16 146.59
  A 1.09 1.07 13.5 0 1 262.12 146.01
  L 266.75 145.99
  A 0.69 0.68 -0.0 0 0 267.44 145.31
  L 267.44 144.95
  Q 267.44 144.03 266.52 144.02
  C 264.27 143.99 259.45 143.27 258.42 146.00
  C 256.95 149.89 261.62 150.91 264.04 151.89
  Q 265.61 152.53 265.19 153.77"
/>
<path stroke="#859cae" vector-effect="non-scaling-stroke" d="
  M 309.11 150.51
  A 6.62 6.62 0.0 0 0 302.49 143.89
  A 6.62 6.62 0.0 0 0 295.87 150.51
  A 6.62 6.62 0.0 0 0 302.49 157.13
  A 6.62 6.62 0.0 0 0 309.11 150.51"
/>
<path stroke="#859cae" vector-effect="non-scaling-stroke" d="
  M 329.75 148.04
  Q 328.24 149.27 326.23 148.99
  A 0.81 0.81 0.0 0 0 325.33 149.59
  L 325.23 149.97
  A 0.69 0.69 0.0 0 0 325.71 150.80
  C 333.26 152.93 335.75 143.43 327.27 143.92
  C 320.07 144.34 319.16 154.88 325.51 156.79
  Q 328.92 157.82 332.02 155.92
  A 0.50 0.50 0.0 0 0 332.08 155.11
  L 331.27 154.42
  Q 330.72 153.96 330.10 154.32
  C 325.07 157.19 321.95 150.01 325.61 146.90
  Q 327.89 144.96 329.81 146.92
  A 0.76 0.76 0.0 0 1 329.75 148.04"
/>
<path stroke="#859cae" vector-effect="non-scaling-stroke" d="
  M 354.70 155.02
  L 350.93 154.96
  A 1.76 1.75 25.0 0 1 349.81 151.88
  Q 351.74 150.21 353.74 151.75
  A 0.37 0.36 -70.0 0 0 354.33 151.47
  L 354.37 150.59
  Q 354.41 149.61 353.47 149.30
  C 350.39 148.29 346.86 149.34 346.83 153.08
  C 346.78 158.32 354.05 157.01 357.17 156.99
  Q 357.67 156.99 357.69 156.49
  Q 357.97 149.93 357.66 147.64
  C 357.09 143.34 352.35 143.93 348.66 144.04
  Q 347.77 144.06 347.76 144.95
  L 347.76 145.26
  A 0.72 0.71 0.8 0 0 348.47 145.98
  C 350.93 146.02 354.90 145.16 355.10 149.01
  Q 355.25 151.74 355.22 154.52
  Q 355.21 155.03 354.70 155.02"
/>
<path stroke="#859cae" vector-effect="non-scaling-stroke" d="
  M 367.53 154.78
  A 0.82 0.78 -62.8 0 1 367.04 154.95
  L 361.97 155.08
  A 0.66 0.66 0.0 0 0 361.32 155.78
  L 361.34 156.06
  Q 361.40 156.94 362.28 156.97
  C 365.66 157.06 372.48 158.17 370.94 151.99
  Q 370.64 150.78 369.48 150.27
  Q 367.41 149.37 365.32 148.61
  Q 364.05 148.14 364.34 146.94
  A 1.21 1.21 0.0 0 1 365.52 146.01
  L 369.77 146.00
  Q 370.67 145.99 370.79 145.11
  L 370.83 144.83
  A 0.65 0.64 -83.8 0 0 370.24 144.09
  C 367.49 143.88 359.45 143.12 361.97 148.88
  A 2.91 2.89 -1.5 0 0 363.60 150.42
  Q 365.50 151.13 367.62 152.19
  Q 369.62 153.19 367.53 154.78"
/>
<path stroke="#859cae" vector-effect="non-scaling-stroke" d="
  M 393.27 148.37
  C 392.78 143.02 387.54 143.94 383.84 144.06
  A 0.60 0.59 88.5 0 0 383.27 144.67
  L 383.27 145.03
  A 0.95 0.95 0.0 0 0 384.19 145.97
  C 385.87 146.03 388.14 145.60 389.48 146.71
  C 391.54 148.42 390.76 152.01 390.61 154.48
  Q 390.57 155.08 389.98 155.05
  L 386.14 154.88
  A 1.56 1.55 -68.3 0 1 385.04 152.31
  Q 387.05 150.01 389.37 151.77
  A 0.47 0.47 0.0 0 0 390.11 151.32
  L 389.97 150.44
  A 1.54 1.51 3.8 0 0 388.88 149.22
  C 381.06 147.03 379.99 157.29 386.82 157.05
  C 388.79 156.98 390.74 157.05 392.74 156.98
  Q 393.24 156.96 393.28 156.46
  Q 393.65 152.39 393.27 148.37"
/>
<path stroke="#859cae" vector-effect="non-scaling-stroke" d="
  M 409.38 154.89
  A 2.02 2.02 0.0 0 1 407.50 152.89
  L 407.45 144.25
  Q 407.44 144.05 407.25 144.05
  L 405.20 144.00
  Q 404.89 143.99 404.89 144.30
  L 405.04 153.63
  A 3.40 3.40 0.0 0 0 408.42 156.98
  L 414.98 157.01
  Q 415.46 157.01 415.46 156.52
  L 415.45 144.25
  A 0.20 0.20 0.0 0 0 415.25 144.05
  L 413.23 144.01
  A 0.26 0.26 0.0 0 0 412.96 144.27
  L 412.96 153.71
  Q 412.96 155.15 411.53 155.04
  L 409.38 154.89"
/>
<path stroke="#859cae" vector-effect="non-scaling-stroke" d="
  M 423.94 145.93
  L 426.41 146.16
  A 1.74 1.74 0.0 0 1 427.99 147.90
  L 427.94 156.47
  Q 427.94 157.00 428.47 157.00
  L 430.22 156.99
  Q 430.67 156.99 430.68 156.53
  Q 430.78 150.39 430.64 148.26
  C 430.29 142.85 424.69 143.92 420.42 144.04
  Q 419.99 144.06 419.99 144.49
  L 419.95 156.47
  A 0.52 0.52 0.0 0 0 420.47 157.00
  L 422.23 156.99
  Q 422.70 156.99 422.70 156.52
  L 422.69 147.07
  Q 422.69 145.82 423.94 145.93"
/>
<path stroke="#859cae" vector-effect="non-scaling-stroke" d="
  M 467.49 146.52
  L 467.42 156.45
  Q 467.42 156.99 467.95 156.99
  L 469.54 156.99
  Q 470.08 156.99 470.07 156.46
  L 470.03 144.60
  Q 470.02 144.14 469.57 144.07
  C 468.20 143.87 465.84 143.68 465.54 145.34
  Q 465.43 145.95 466.05 145.98
  L 467.02 146.02
  Q 467.49 146.04 467.49 146.52"
/>
<path stroke="#859cae" vector-effect="non-scaling-stroke" d="
  M 484.85 145.06
  C 480.99 142.84 474.32 144.38 474.43 149.75
  Q 474.62 158.13 483.87 156.77
  A 1.23 1.22 -29.5 0 0 484.47 154.61
  L 484.17 154.36
  Q 483.71 153.99 483.19 154.26
  C 474.82 158.64 476.19 142.04 483.00 146.73
  A 0.97 0.96 40.9 0 0 484.19 146.65
  L 484.95 145.94
  A 0.55 0.55 0.0 0 0 484.85 145.06"
/>
<path stroke="#859cae" vector-effect="non-scaling-stroke" d="
  M 107.99 132.23
  C 118.12 133.71 128.24 135.32 138.43 136.88
  Q 138.96 136.96 139.05 136.42
  Q 141.53 121.26 143.95 106.08
  Q 144.48 102.74 146.00 99.72
  Q 152.97 85.83 160.02 71.99
  Q 160.26 71.52 159.79 71.27
  L 130.00 55.96
  A 4.19 4.03 79.8 0 1 129.02 55.25
  L 104.84 31.42
  Q 104.53 31.11 104.21 31.42
  Q 93.20 42.08 82.27 52.84
  Q 79.76 55.31 76.68 56.93
  Q 62.81 64.22 48.88 71.26
  Q 48.46 71.48 48.67 71.90
  Q 55.67 85.74 62.65 99.61
  Q 64.23 102.74 64.82 106.19
  Q 67.41 121.37 69.92 136.61
  Q 69.98 137.00 70.37 136.94
  Q 85.64 134.57 101.02 132.25
  Q 104.52 131.73 107.99 132.23"
/>
<path stroke="#859cae" vector-effect="non-scaling-stroke" d="
  M 66.07 107.38
  Q 68.36 121.49 70.71 135.50
  Q 70.76 135.77 71.03 135.73
  Q 86.13 133.57 101.24 131.27
  Q 104.51 130.78 107.77 131.28
  Q 122.61 133.56 137.55 135.72
  Q 138.05 135.79 138.13 135.29
  Q 140.52 120.47 142.96 105.67
  Q 143.53 102.24 145.07 99.15
  Q 151.78 85.74 158.58 72.43
  Q 158.79 72.01 158.37 71.80
  Q 145.01 64.92 131.62 58.10
  Q 128.66 56.59 126.31 54.27
  Q 115.48 43.57 104.86 32.72
  Q 104.52 32.38 104.18 32.72
  Q 93.52 43.41 82.77 54.06
  Q 80.40 56.41 77.43 57.94
  Q 64.11 64.83 50.72 71.72
  Q 50.26 71.96 50.49 72.43
  Q 57.51 86.59 64.47 100.66
  C 65.58 102.90 65.68 104.98 66.07 107.38"
/>
<path stroke="#859cae" vector-effect="non-scaling-stroke" d="
  M 140.26 99.99
  L 153.76 73.50
  A 0.54 0.52 27.8 0 0 153.53 72.79
  Q 141.89 66.69 130.10 60.64
  Q 126.97 59.03 124.48 56.62
  Q 114.53 47.01 104.83 37.24
  Q 104.51 36.91 104.19 37.24
  Q 94.47 47.02 84.55 56.59
  Q 82.04 59.02 78.90 60.63
  Q 67.10 66.70 55.39 72.82
  A 0.45 0.45 0.0 0 0 55.19 73.42
  Q 61.21 85.43 67.19 97.39
  Q 68.74 100.49 69.30 103.90
  Q 71.51 117.33 73.69 130.70
  Q 73.74 131.02 74.06 130.98
  Q 87.56 129.00 101.10 127.00
  Q 104.50 126.50 107.90 127.01
  Q 121.30 129.01 134.69 130.97
  Q 135.02 131.02 135.08 130.69
  L 139.90 101.08
  A 3.66 3.49 -28.1 0 1 140.26 99.99"
/>
<path stroke="#859cae" vector-effect="non-scaling-stroke" d="
  M 113.77 87.29
  Q 117.27 85.71 117.75 82.28
  C 119.48 69.90 100.34 70.93 93.57 73.35
  A 2.55 2.54 80.3 0 0 91.88 75.75
  Q 91.87 87.45 91.88 99.33
  C 91.88 101.44 92.38 102.85 94.30 103.68
  C 99.86 106.11 116.03 106.40 118.34 98.59
  Q 120.59 90.98 113.77 87.87
  Q 113.14 87.58 113.77 87.29"
/>
<path stroke="#859cae" vector-effect="non-scaling-stroke" d="
  M 205.72 69.64
  L 205.70 83.00
  A 0.63 0.63 0.0 0 0 206.33 83.63
  L 211.31 83.64
  A 7.17 6.15 0.1 0 0 218.49 77.50
  L 218.49 75.18
  A 7.17 6.15 0.1 0 0 211.33 69.02
  L 206.35 69.01
  A 0.63 0.63 0.0 0 0 205.72 69.64"
/>
<path stroke="#859cae" vector-effect="non-scaling-stroke" d="
  M 205.68 88.61
  L 205.62 104.43
  A 0.63 0.63 0.0 0 0 206.25 105.06
  L 211.90 105.08
  A 7.64 7.33 0.2 0 0 219.57 97.77
  L 219.57 95.35
  A 7.64 7.33 0.2 0 0 211.96 88.00
  L 206.31 87.98
  A 0.63 0.63 0.0 0 0 205.68 88.61"
/>
<path stroke="#859cae" vector-effect="non-scaling-stroke" d="
  M 101.04 79.45
  L 101.04 84.55
  A 0.46 0.46 0.0 0 0 101.51 85.01
  L 104.79 85.00
  A 3.72 2.73 -0.1 0 0 108.50 82.26
  L 108.50 81.70
  A 3.72 2.73 -0.1 0 0 104.77 78.98
  L 101.49 78.99
  A 0.46 0.46 0.0 0 0 101.04 79.45"
/>
<path stroke="#859cae" vector-effect="non-scaling-stroke" d="
  M 101.00 92.52
  L 100.98 97.42
  A 0.59 0.59 0.0 0 0 101.56 98.01
  L 105.22 98.03
  A 4.07 2.61 0.3 0 0 109.31 95.44
  L 109.31 94.58
  A 4.07 2.61 0.3 0 0 105.26 91.95
  L 101.60 91.93
  A 0.59 0.59 0.0 0 0 101.00 92.52"
/>
<path stroke="#859cae" vector-effect="non-scaling-stroke" d="
  M 248.85 88.03
  A 6.41 6.41 0.0 0 0 242.44 81.62
  L 241.58 81.62
  A 6.41 6.41 0.0 0 0 235.17 88.03
  L 235.17 98.77
  A 6.41 6.41 0.0 0 0 241.58 105.18
  L 242.44 105.18
  A 6.41 6.41 0.0 0 0 248.85 98.77
  L 248.85 88.03"
/>
<path stroke="#859cae" vector-effect="non-scaling-stroke" d="
  M 295.98 91.52
  L 309.02 91.46
  A 0.36 0.36 0.0 0 0 309.37 91.09
  L 309.37 90.09
  A 8.80 6.36 89.7 0 0 302.96 81.33
  L 301.92 81.33
  A 8.80 6.36 89.7 0 0 295.61 90.17
  L 295.61 91.17
  A 0.36 0.36 0.0 0 0 295.98 91.52"
/>
<path stroke="#859cae" vector-effect="non-scaling-stroke" d="
  M 368.91 104.44
  L 368.67 94.08
  A 0.82 0.82 0.0 0 0 367.83 93.28
  L 363.13 93.39
  A 7.50 5.77 -1.3 0 0 355.77 99.33
  L 355.78 99.79
  A 7.50 5.77 -1.3 0 0 363.41 105.39
  L 368.10 105.28
  A 0.82 0.82 0.0 0 0 368.91 104.44"
/>
<path stroke="#859cae" vector-effect="non-scaling-stroke" d="
  M 302.4887 154.9899
  A 4.48 3.88 90.4 0 0 306.3999 150.5371
  A 4.48 3.88 90.4 0 0 302.5513 146.0301
  A 4.48 3.88 90.4 0 0 298.6401 150.4829
  A 4.48 3.88 90.4 0 0 302.4887 154.9899"
/>
</g>
<path fill="#4e5964" d="
  M 0.00 0.00
  L 602.00 0.00
  L 602.00 196.00
  L 0.00 196.00
  L 0.00 0.00
  Z
  M 161.42 70.74
  Q 146.17 62.81 132.97 56.01
  Q 130.00 54.49 127.64 52.15
  Q 116.24 40.90 104.83 29.64
  Q 104.47 29.29 104.12 29.64
  Q 92.49 41.00 80.85 52.37
  Q 78.46 54.71 75.47 56.24
  Q 61.25 63.51 47.09 70.84
  Q 46.74 71.02 46.92 71.38
  L 62.40 102.57
  A 5.44 5.29 27.9 0 1 62.90 104.12
  L 68.69 138.74
  A 0.28 0.28 0.0 0 0 69.01 138.97
  Q 85.06 136.50 101.17 134.01
  Q 104.50 133.49 107.82 134.01
  Q 123.78 136.51 139.69 138.97
  Q 140.02 139.02 140.08 138.69
  Q 142.74 122.72 145.43 106.69
  Q 146.01 103.23 147.56 100.10
  Q 154.67 85.70 161.70 71.61
  Q 161.99 71.04 161.42 70.74
  Z
  M 460.0048 67.6462
  A 3.70 3.70 0.0 0 0 456.2599 63.9916
  L 454.8400 64.0090
  A 3.70 3.70 0.0 0 0 451.1854 67.7539
  L 451.1952 68.5538
  A 3.70 3.70 0.0 0 0 454.9401 72.2084
  L 456.3600 72.1910
  A 3.70 3.70 0.0 0 0 460.0146 68.4461
  L 460.0048 67.6462
  Z
  M 218.52 85.32
  C 226.34 80.59 225.72 67.52 216.22 65.27
  Q 209.16 63.59 200.86 65.34
  Q 200.48 65.42 200.48 65.80
  L 200.48 108.23
  Q 200.48 108.68 200.92 108.80
  C 209.52 111.07 223.68 110.55 224.64 98.75
  C 225.13 92.77 224.42 87.86 218.57 85.82
  Q 218.01 85.62 218.52 85.32
  Z
  M 269.18 70.02
  Q 269.29 86.01 269.24 102.00
  C 269.21 110.59 279.08 110.89 285.01 108.61
  Q 285.26 108.52 285.26 108.26
  L 285.24 104.48
  A 0.23 0.23 0.0 0 0 284.93 104.27
  C 281.96 105.48 274.47 106.52 274.46 101.50
  Q 274.42 83.52 274.48 65.51
  A 0.47 0.47 0.0 0 0 274.01 65.04
  L 259.83 65.05
  Q 259.46 65.05 259.46 65.42
  L 259.49 69.02
  Q 259.49 69.55 260.02 69.55
  L 268.72 69.56
  Q 269.18 69.56 269.18 70.02
  Z
  M 507.77 108.98
  A 0.31 0.31 0.0 0 0 508.08 108.67
  L 508.00 95.51
  A 0.31 0.31 0.0 0 1 508.54 95.29
  L 521.66 108.93
  A 0.31 0.31 0.0 0 0 521.88 109.03
  L 527.15 108.96
  A 0.31 0.31 0.0 0 0 527.37 108.44
  L 512.78 93.02
  A 0.31 0.31 0.0 0 1 512.78 92.59
  L 527.09 78.26
  A 0.31 0.31 0.0 0 0 526.87 77.73
  L 521.47 77.73
  A 0.31 0.31 0.0 0 0 521.25 77.82
  L 508.53 90.40
  A 0.31 0.31 0.0 0 1 508.00 90.18
  L 508.14 65.41
  A 0.31 0.31 0.0 0 0 507.83 65.10
  L 503.05 65.04
  A 0.31 0.31 0.0 0 0 502.74 65.35
  L 502.78 108.69
  A 0.31 0.31 0.0 0 0 503.09 109.00
  L 507.77 108.98
  Z
  M 326.75 77.73
  L 319.77 77.75
  Q 319.29 77.75 319.29 78.23
  L 319.26 81.50
  Q 319.26 82.00 319.75 82.00
  L 326.72 82.00
  Q 327.20 82.00 327.20 82.48
  Q 327.26 91.73 327.19 101.02
  C 327.12 110.88 337.32 110.91 343.97 108.70
  Q 344.26 108.60 344.26 108.30
  L 344.25 104.49
  A 0.21 0.21 0.0 0 0 343.97 104.30
  C 341.57 105.16 334.17 106.51 332.80 103.00
  Q 332.41 102.01 332.37 99.25
  Q 332.26 91.12 332.21 82.32
  A 0.31 0.30 90.0 0 1 332.51 82.01
  L 343.77 81.99
  Q 344.28 81.99 344.28 81.48
  L 344.25 78.25
  Q 344.25 77.74 343.74 77.74
  L 332.72 77.74
  Q 332.20 77.74 332.20 77.22
  L 332.23 67.97
  Q 332.23 67.46 331.72 67.46
  L 327.51 67.45
  Q 327.21 67.45 327.21 67.74
  L 327.22 77.25
  Q 327.23 77.73 326.75 77.73
  Z
  M 254.12 88.26
  A 11.16 11.16 0.0 0 0 242.96 77.10
  L 241.06 77.10
  A 11.16 11.16 0.0 0 0 229.90 88.26
  L 229.90 98.54
  A 11.16 11.16 0.0 0 0 241.06 109.70
  L 242.96 109.70
  A 11.16 11.16 0.0 0 0 254.12 98.54
  L 254.12 88.26
  Z
  M 297.70 95.55
  L 313.94 95.55
  Q 314.34 95.55 314.37 95.15
  C 315.01 87.83 313.93 78.55 305.03 77.16
  C 291.51 75.06 289.87 87.02 290.62 97.01
  C 291.58 109.86 302.22 111.19 312.50 108.77
  Q 312.73 108.71 312.73 108.47
  L 312.70 104.60
  A 0.18 0.18 0.0 0 0 312.48 104.43
  Q 306.88 105.88 301.22 105.01
  A 5.27 5.26 -6.0 0 1 297.11 101.69
  L 295.81 98.29
  Q 294.76 95.55 297.70 95.55
  Z
  M 367.31 89.28
  C 362.87 88.81 356.24 89.76 352.87 93.14
  Q 349.42 96.60 350.72 101.52
  C 353.29 111.27 365.93 110.93 373.28 107.94
  A 0.74 0.73 79.8 0 0 373.74 107.27
  Q 373.90 92.59 373.69 84.76
  C 373.42 74.59 359.16 76.66 353.18 78.50
  Q 352.29 78.77 352.28 79.70
  L 352.27 82.28
  A 0.74 0.74 0.0 0 0 353.26 82.97
  Q 359.56 80.70 366.16 81.78
  A 2.69 2.68 -88.6 0 1 368.39 84.13
  L 368.80 87.78
  Q 368.99 89.45 367.31 89.28
  Z
  M 398.57 82.49
  L 398.56 87.25
  Q 398.56 87.95 399.25 87.96
  L 403.00 87.97
  Q 403.72 87.98 403.72 87.25
  L 403.72 79.01
  Q 403.72 78.53 403.26 78.39
  C 397.03 76.42 381.44 75.02 382.06 85.53
  C 382.49 92.77 390.40 94.47 395.94 96.55
  C 400.38 98.21 400.87 104.01 395.73 104.96
  Q 389.79 106.05 383.05 103.65
  Q 382.77 103.55 382.77 103.85
  L 382.74 107.75
  Q 382.74 107.97 382.95 108.05
  C 388.02 110.00 402.11 111.54 404.14 104.33
  C 406.84 94.71 398.28 92.36 391.49 90.02
  C 387.94 88.80 384.66 83.51 390.00 82.04
  Q 393.40 81.10 398.04 81.87
  Q 398.57 81.95 398.57 82.49
  Z
  M 478.03 82.32
  C 480.23 81.66 487.73 80.65 489.17 83.35
  Q 490.35 85.56 490.32 89.00
  Q 490.21 99.01 490.22 108.68
  Q 490.22 109.00 490.53 109.00
  L 494.81 109.00
  Q 495.22 109.00 495.23 108.59
  Q 495.33 97.17 494.95 85.48
  C 494.59 74.42 480.10 76.42 473.30 78.60
  Q 472.48 78.87 472.48 79.73
  L 472.48 108.74
  A 0.26 0.26 0.0 0 0 472.74 109.00
  L 477.26 109.00
  Q 477.53 109.00 477.53 108.73
  L 477.52 83.00
  A 0.71 0.71 0.0 0 1 478.03 82.32
  Z
  M 458.71 108.99
  A 0.41 0.41 0.0 0 0 459.12 108.58
  L 458.99 78.15
  A 0.41 0.41 0.0 0 0 458.58 77.74
  L 443.64 77.74
  A 0.41 0.41 0.0 0 0 443.23 78.15
  L 443.19 81.59
  A 0.41 0.41 0.0 0 0 443.60 82.00
  L 453.56 82.01
  A 0.41 0.41 0.0 0 1 453.97 82.42
  L 453.93 108.58
  A 0.41 0.41 0.0 0 0 454.34 108.99
  L 458.71 108.99
  Z
  M 428.35 105.04
  A 4.87 4.87 0.0 0 0 423.48 100.17
  A 4.87 4.87 0.0 0 0 418.61 105.04
  A 4.87 4.87 0.0 0 0 423.48 109.91
  A 4.87 4.87 0.0 0 0 428.35 105.04
  Z
  M 235.67 141.42
  A 0.42 0.42 0.0 0 1 236.09 141.00
  L 239.74 141.00
  A 0.42 0.42 0.0 0 0 240.16 140.61
  L 240.25 139.44
  A 0.42 0.42 0.0 0 0 239.83 138.99
  L 228.48 139.02
  A 0.42 0.42 0.0 0 0 228.07 139.48
  L 228.18 140.59
  A 0.42 0.42 0.0 0 0 228.59 140.97
  L 232.50 141.04
  A 0.42 0.42 0.0 0 1 232.91 141.46
  L 232.99 156.58
  A 0.42 0.42 0.0 0 0 233.41 157.00
  L 235.27 156.99
  A 0.42 0.42 0.0 0 0 235.69 156.57
  L 235.67 141.42
  Z
  M 289.41 147.25
  C 293.31 145.40 291.00 139.47 287.76 139.06
  Q 279.19 137.99 279.44 146.51
  Q 279.58 151.57 279.39 156.31
  Q 279.36 156.98 280.03 156.99
  L 281.49 157.01
  Q 282.24 157.01 282.26 156.26
  Q 282.39 150.21 282.47 144.13
  Q 282.49 141.98 284.51 141.25
  C 289.35 139.50 290.76 147.57 284.27 147.03
  A 0.78 0.78 0.0 0 0 283.44 147.65
  L 283.35 148.09
  A 0.70 0.70 0.0 0 0 284.01 148.93
  C 286.22 148.99 288.82 148.85 289.40 151.00
  C 290.52 155.13 286.44 155.09 283.55 155.02
  A 0.87 0.87 0.0 0 0 282.66 155.84
  L 282.63 156.26
  Q 282.60 156.89 283.23 156.94
  C 287.47 157.27 292.10 157.38 292.39 152.51
  Q 292.56 149.58 289.40 147.43
  Q 289.25 147.33 289.41 147.25
  Z
  M 318.32 155.11
  C 315.85 154.46 315.77 153.32 315.77 151.00
  Q 315.78 145.02 315.77 139.28
  A 0.28 0.28 0.0 0 0 315.49 139.00
  L 313.47 139.03
  Q 313.16 139.03 313.16 139.34
  Q 313.13 145.73 313.15 152.25
  Q 313.17 157.26 317.96 156.97
  Q 318.48 156.93 318.74 156.65
  Q 319.09 156.27 318.97 155.77
  Q 318.85 155.24 318.32 155.11
  Z
  M 442.88 146.63
  Q 442.27 157.50 452.80 157.03
  A 1.05 1.05 0.0 0 0 453.80 156.06
  L 453.83 155.71
  A 0.65 0.65 0.0 0 0 453.14 155.02
  C 443.15 155.75 442.97 140.78 452.71 140.98
  Q 453.53 141.00 453.78 140.22
  L 453.87 139.95
  A 0.59 0.59 0.0 0 0 453.42 139.19
  C 448.03 138.10 443.20 140.86 442.88 146.63
  Z
  M 460.52 153.23
  L 460.42 139.23
  Q 460.42 139.05 460.23 139.04
  L 458.21 139.00
  Q 457.90 138.99 457.91 139.29
  Q 457.99 145.97 458.00 152.75
  Q 458.01 156.88 462.26 157.00
  Q 463.50 157.04 463.62 155.93
  A 0.74 0.73 10.4 0 0 463.07 155.14
  Q 462.02 154.88 461.10 154.28
  Q 460.53 153.91 460.52 153.23
  Z
  M 470.14 140.51
  A 1.61 1.61 0.0 0 0 468.53 138.90
  A 1.61 1.61 0.0 0 0 466.92 140.51
  A 1.61 1.61 0.0 0 0 468.53 142.12
  A 1.61 1.61 0.0 0 0 470.14 140.51
  Z
  M 495.90 148.88
  L 498.52 144.53
  Q 498.82 144.03 498.24 144.02
  L 496.49 144.00
  A 1.16 1.16 0.0 0 0 495.43 144.66
  Q 494.66 146.29 493.67 148.15
  Q 493.35 148.75 492.92 148.92
  Q 492.39 149.13 491.85 148.99
  Q 491.31 148.84 491.31 148.28
  L 491.27 139.51
  Q 491.26 139.01 490.76 139.01
  L 489.04 139.02
  Q 488.60 139.02 488.60 139.46
  L 488.61 156.43
  Q 488.61 157.00 489.18 156.99
  L 490.73 156.99
  Q 491.35 156.99 491.34 156.37
  L 491.30 151.47
  Q 491.29 150.95 491.81 150.96
  Q 497.10 151.11 496.10 156.49
  A 0.42 0.41 -84.7 0 0 496.50 156.98
  L 498.33 157.00
  Q 498.55 157.00 498.61 156.78
  Q 499.71 152.09 496.04 149.51
  Q 495.68 149.26 495.90 148.88
  Z
  M 340.27 146.00
  L 342.53 146.00
  Q 343.52 146.00 343.54 145.01
  L 343.55 144.63
  Q 343.56 144.04 342.96 144.03
  L 340.33 143.99
  A 0.61 0.60 -86.5 0 1 339.74 143.32
  L 339.83 142.51
  A 0.36 0.36 0.0 0 0 339.25 142.19
  L 335.23 145.30
  Q 334.57 145.82 335.40 145.89
  L 336.77 146.01
  Q 337.25 146.06 337.24 146.54
  C 337.12 150.67 335.99 157.38 342.59 157.00
  Q 343.49 156.95 343.59 156.05
  L 343.63 155.64
  Q 343.69 155.13 343.18 155.10
  C 338.59 154.83 339.72 149.51 339.78 146.49
  Q 339.79 146.00 340.27 146.00
  Z
  M 249.89 155.06
  L 247.97 154.89
  A 2.18 2.17 2.5 0 1 245.98 152.73
  L 245.98 144.25
  Q 245.98 144.03 245.75 144.02
  L 243.70 144.01
  Q 243.37 144.01 243.35 144.34
  C 243.22 146.77 242.77 153.47 244.26 155.43
  C 245.88 157.57 250.36 157.13 253.56 156.91
  Q 253.97 156.88 253.97 156.47
  L 253.99 144.50
  Q 253.99 144.01 253.50 144.01
  L 251.98 144.02
  Q 251.49 144.03 251.49 144.52
  L 251.48 153.61
  Q 251.47 155.19 249.89 155.06
  Z
  M 265.19 153.77
  A 1.68 1.68 0.0 0 1 263.65 154.92
  L 258.53 155.12
  A 0.48 0.48 0.0 0 0 258.07 155.65
  L 258.11 156.08
  Q 258.19 156.95 259.06 156.97
  C 262.45 157.05 268.88 158.08 267.80 152.23
  C 267.42 150.21 263.82 149.29 262.07 148.62
  Q 260.43 148.01 261.16 146.59
  A 1.09 1.07 13.5 0 1 262.12 146.01
  L 266.75 145.99
  A 0.69 0.68 -0.0 0 0 267.44 145.31
  L 267.44 144.95
  Q 267.44 144.03 266.52 144.02
  C 264.27 143.99 259.45 143.27 258.42 146.00
  C 256.95 149.89 261.62 150.91 264.04 151.89
  Q 265.61 152.53 265.19 153.77
  Z
  M 309.11 150.51
  A 6.62 6.62 0.0 0 0 302.49 143.89
  A 6.62 6.62 0.0 0 0 295.87 150.51
  A 6.62 6.62 0.0 0 0 302.49 157.13
  A 6.62 6.62 0.0 0 0 309.11 150.51
  Z
  M 329.75 148.04
  Q 328.24 149.27 326.23 148.99
  A 0.81 0.81 0.0 0 0 325.33 149.59
  L 325.23 149.97
  A 0.69 0.69 0.0 0 0 325.71 150.80
  C 333.26 152.93 335.75 143.43 327.27 143.92
  C 320.07 144.34 319.16 154.88 325.51 156.79
  Q 328.92 157.82 332.02 155.92
  A 0.50 0.50 0.0 0 0 332.08 155.11
  L 331.27 154.42
  Q 330.72 153.96 330.10 154.32
  C 325.07 157.19 321.95 150.01 325.61 146.90
  Q 327.89 144.96 329.81 146.92
  A 0.76 0.76 0.0 0 1 329.75 148.04
  Z
  M 354.70 155.02
  L 350.93 154.96
  A 1.76 1.75 25.0 0 1 349.81 151.88
  Q 351.74 150.21 353.74 151.75
  A 0.37 0.36 -70.0 0 0 354.33 151.47
  L 354.37 150.59
  Q 354.41 149.61 353.47 149.30
  C 350.39 148.29 346.86 149.34 346.83 153.08
  C 346.78 158.32 354.05 157.01 357.17 156.99
  Q 357.67 156.99 357.69 156.49
  Q 357.97 149.93 357.66 147.64
  C 357.09 143.34 352.35 143.93 348.66 144.04
  Q 347.77 144.06 347.76 144.95
  L 347.76 145.26
  A 0.72 0.71 0.8 0 0 348.47 145.98
  C 350.93 146.02 354.90 145.16 355.10 149.01
  Q 355.25 151.74 355.22 154.52
  Q 355.21 155.03 354.70 155.02
  Z
  M 367.53 154.78
  A 0.82 0.78 -62.8 0 1 367.04 154.95
  L 361.97 155.08
  A 0.66 0.66 0.0 0 0 361.32 155.78
  L 361.34 156.06
  Q 361.40 156.94 362.28 156.97
  C 365.66 157.06 372.48 158.17 370.94 151.99
  Q 370.64 150.78 369.48 150.27
  Q 367.41 149.37 365.32 148.61
  Q 364.05 148.14 364.34 146.94
  A 1.21 1.21 0.0 0 1 365.52 146.01
  L 369.77 146.00
  Q 370.67 145.99 370.79 145.11
  L 370.83 144.83
  A 0.65 0.64 -83.8 0 0 370.24 144.09
  C 367.49 143.88 359.45 143.12 361.97 148.88
  A 2.91 2.89 -1.5 0 0 363.60 150.42
  Q 365.50 151.13 367.62 152.19
  Q 369.62 153.19 367.53 154.78
  Z
  M 393.27 148.37
  C 392.78 143.02 387.54 143.94 383.84 144.06
  A 0.60 0.59 88.5 0 0 383.27 144.67
  L 383.27 145.03
  A 0.95 0.95 0.0 0 0 384.19 145.97
  C 385.87 146.03 388.14 145.60 389.48 146.71
  C 391.54 148.42 390.76 152.01 390.61 154.48
  Q 390.57 155.08 389.98 155.05
  L 386.14 154.88
  A 1.56 1.55 -68.3 0 1 385.04 152.31
  Q 387.05 150.01 389.37 151.77
  A 0.47 0.47 0.0 0 0 390.11 151.32
  L 389.97 150.44
  A 1.54 1.51 3.8 0 0 388.88 149.22
  C 381.06 147.03 379.99 157.29 386.82 157.05
  C 388.79 156.98 390.74 157.05 392.74 156.98
  Q 393.24 156.96 393.28 156.46
  Q 393.65 152.39 393.27 148.37
  Z
  M 409.38 154.89
  A 2.02 2.02 0.0 0 1 407.50 152.89
  L 407.45 144.25
  Q 407.44 144.05 407.25 144.05
  L 405.20 144.00
  Q 404.89 143.99 404.89 144.30
  L 405.04 153.63
  A 3.40 3.40 0.0 0 0 408.42 156.98
  L 414.98 157.01
  Q 415.46 157.01 415.46 156.52
  L 415.45 144.25
  A 0.20 0.20 0.0 0 0 415.25 144.05
  L 413.23 144.01
  A 0.26 0.26 0.0 0 0 412.96 144.27
  L 412.96 153.71
  Q 412.96 155.15 411.53 155.04
  L 409.38 154.89
  Z
  M 423.94 145.93
  L 426.41 146.16
  A 1.74 1.74 0.0 0 1 427.99 147.90
  L 427.94 156.47
  Q 427.94 157.00 428.47 157.00
  L 430.22 156.99
  Q 430.67 156.99 430.68 156.53
  Q 430.78 150.39 430.64 148.26
  C 430.29 142.85 424.69 143.92 420.42 144.04
  Q 419.99 144.06 419.99 144.49
  L 419.95 156.47
  A 0.52 0.52 0.0 0 0 420.47 157.00
  L 422.23 156.99
  Q 422.70 156.99 422.70 156.52
  L 422.69 147.07
  Q 422.69 145.82 423.94 145.93
  Z
  M 467.49 146.52
  L 467.42 156.45
  Q 467.42 156.99 467.95 156.99
  L 469.54 156.99
  Q 470.08 156.99 470.07 156.46
  L 470.03 144.60
  Q 470.02 144.14 469.57 144.07
  C 468.20 143.87 465.84 143.68 465.54 145.34
  Q 465.43 145.95 466.05 145.98
  L 467.02 146.02
  Q 467.49 146.04 467.49 146.52
  Z
  M 484.85 145.06
  C 480.99 142.84 474.32 144.38 474.43 149.75
  Q 474.62 158.13 483.87 156.77
  A 1.23 1.22 -29.5 0 0 484.47 154.61
  L 484.17 154.36
  Q 483.71 153.99 483.19 154.26
  C 474.82 158.64 476.19 142.04 483.00 146.73
  A 0.97 0.96 40.9 0 0 484.19 146.65
  L 484.95 145.94
  A 0.55 0.55 0.0 0 0 484.85 145.06
  Z"
/>
<path fill="#bcdef8" d="
  M 161.42 70.74
  Q 161.99 71.04 161.70 71.61
  Q 154.67 85.70 147.56 100.10
  Q 146.01 103.23 145.43 106.69
  Q 142.74 122.72 140.08 138.69
  Q 140.02 139.02 139.69 138.97
  Q 123.78 136.51 107.82 134.01
  Q 104.50 133.49 101.17 134.01
  Q 85.06 136.50 69.01 138.97
  A 0.28 0.28 0.0 0 1 68.69 138.74
  L 62.90 104.12
  A 5.44 5.29 27.9 0 0 62.40 102.57
  L 46.92 71.38
  Q 46.74 71.02 47.09 70.84
  Q 61.25 63.51 75.47 56.24
  Q 78.46 54.71 80.85 52.37
  Q 92.49 41.00 104.12 29.64
  Q 104.47 29.29 104.83 29.64
  Q 116.24 40.90 127.64 52.15
  Q 130.00 54.49 132.97 56.01
  Q 146.17 62.81 161.42 70.74
  Z
  M 107.99 132.23
  C 118.12 133.71 128.24 135.32 138.43 136.88
  Q 138.96 136.96 139.05 136.42
  Q 141.53 121.26 143.95 106.08
  Q 144.48 102.74 146.00 99.72
  Q 152.97 85.83 160.02 71.99
  Q 160.26 71.52 159.79 71.27
  L 130.00 55.96
  A 4.19 4.03 79.8 0 1 129.02 55.25
  L 104.84 31.42
  Q 104.53 31.11 104.21 31.42
  Q 93.20 42.08 82.27 52.84
  Q 79.76 55.31 76.68 56.93
  Q 62.81 64.22 48.88 71.26
  Q 48.46 71.48 48.67 71.90
  Q 55.67 85.74 62.65 99.61
  Q 64.23 102.74 64.82 106.19
  Q 67.41 121.37 69.92 136.61
  Q 69.98 137.00 70.37 136.94
  Q 85.64 134.57 101.02 132.25
  Q 104.52 131.73 107.99 132.23
  Z"
/>
<path fill="#4e5964" d="
  M 138.43 136.88
  C 128.24 135.32 118.12 133.71 107.99 132.23
  Q 104.52 131.73 101.02 132.25
  Q 85.64 134.57 70.37 136.94
  Q 69.98 137.00 69.92 136.61
  Q 67.41 121.37 64.82 106.19
  Q 64.23 102.74 62.65 99.61
  Q 55.67 85.74 48.67 71.90
  Q 48.46 71.48 48.88 71.26
  Q 62.81 64.22 76.68 56.93
  Q 79.76 55.31 82.27 52.84
  Q 93.20 42.08 104.21 31.42
  Q 104.53 31.11 104.84 31.42
  L 129.02 55.25
  A 4.19 4.03 79.8 0 0 130.00 55.96
  L 159.79 71.27
  Q 160.26 71.52 160.02 71.99
  Q 152.97 85.83 146.00 99.72
  Q 144.48 102.74 143.95 106.08
  Q 141.53 121.26 139.05 136.42
  Q 138.96 136.96 138.43 136.88
  Z
  M 66.07 107.38
  Q 68.36 121.49 70.71 135.50
  Q 70.76 135.77 71.03 135.73
  Q 86.13 133.57 101.24 131.27
  Q 104.51 130.78 107.77 131.28
  Q 122.61 133.56 137.55 135.72
  Q 138.05 135.79 138.13 135.29
  Q 140.52 120.47 142.96 105.67
  Q 143.53 102.24 145.07 99.15
  Q 151.78 85.74 158.58 72.43
  Q 158.79 72.01 158.37 71.80
  Q 145.01 64.92 131.62 58.10
  Q 128.66 56.59 126.31 54.27
  Q 115.48 43.57 104.86 32.72
  Q 104.52 32.38 104.18 32.72
  Q 93.52 43.41 82.77 54.06
  Q 80.40 56.41 77.43 57.94
  Q 64.11 64.83 50.72 71.72
  Q 50.26 71.96 50.49 72.43
  Q 57.51 86.59 64.47 100.66
  C 65.58 102.90 65.68 104.98 66.07 107.38
  Z"
/>
<path fill="#bcdef8" d="
  M 66.07 107.38
  C 65.68 104.98 65.58 102.90 64.47 100.66
  Q 57.51 86.59 50.49 72.43
  Q 50.26 71.96 50.72 71.72
  Q 64.11 64.83 77.43 57.94
  Q 80.40 56.41 82.77 54.06
  Q 93.52 43.41 104.18 32.72
  Q 104.52 32.38 104.86 32.72
  Q 115.48 43.57 126.31 54.27
  Q 128.66 56.59 131.62 58.10
  Q 145.01 64.92 158.37 71.80
  Q 158.79 72.01 158.58 72.43
  Q 151.78 85.74 145.07 99.15
  Q 143.53 102.24 142.96 105.67
  Q 140.52 120.47 138.13 135.29
  Q 138.05 135.79 137.55 135.72
  Q 122.61 133.56 107.77 131.28
  Q 104.51 130.78 101.24 131.27
  Q 86.13 133.57 71.03 135.73
  Q 70.76 135.77 70.71 135.50
  Q 68.36 121.49 66.07 107.38
  Z
  M 140.26 99.99
  L 153.76 73.50
  A 0.54 0.52 27.8 0 0 153.53 72.79
  Q 141.89 66.69 130.10 60.64
  Q 126.97 59.03 124.48 56.62
  Q 114.53 47.01 104.83 37.24
  Q 104.51 36.91 104.19 37.24
  Q 94.47 47.02 84.55 56.59
  Q 82.04 59.02 78.90 60.63
  Q 67.10 66.70 55.39 72.82
  A 0.45 0.45 0.0 0 0 55.19 73.42
  Q 61.21 85.43 67.19 97.39
  Q 68.74 100.49 69.30 103.90
  Q 71.51 117.33 73.69 130.70
  Q 73.74 131.02 74.06 130.98
  Q 87.56 129.00 101.10 127.00
  Q 104.50 126.50 107.90 127.01
  Q 121.30 129.01 134.69 130.97
  Q 135.02 131.02 135.08 130.69
  L 139.90 101.08
  A 3.66 3.49 -28.1 0 1 140.26 99.99
  Z"
/>
<path fill="#4e5964" d="
  M 140.26 99.99
  A 3.66 3.49 -28.1 0 0 139.90 101.08
  L 135.08 130.69
  Q 135.02 131.02 134.69 130.97
  Q 121.30 129.01 107.90 127.01
  Q 104.50 126.50 101.10 127.00
  Q 87.56 129.00 74.06 130.98
  Q 73.74 131.02 73.69 130.70
  Q 71.51 117.33 69.30 103.90
  Q 68.74 100.49 67.19 97.39
  Q 61.21 85.43 55.19 73.42
  A 0.45 0.45 0.0 0 1 55.39 72.82
  Q 67.10 66.70 78.90 60.63
  Q 82.04 59.02 84.55 56.59
  Q 94.47 47.02 104.19 37.24
  Q 104.51 36.91 104.83 37.24
  Q 114.53 47.01 124.48 56.62
  Q 126.97 59.03 130.10 60.64
  Q 141.89 66.69 153.53 72.79
  A 0.54 0.52 27.8 0 1 153.76 73.50
  L 140.26 99.99
  Z
  M 113.77 87.29
  Q 117.27 85.71 117.75 82.28
  C 119.48 69.90 100.34 70.93 93.57 73.35
  A 2.55 2.54 80.3 0 0 91.88 75.75
  Q 91.87 87.45 91.88 99.33
  C 91.88 101.44 92.38 102.85 94.30 103.68
  C 99.86 106.11 116.03 106.40 118.34 98.59
  Q 120.59 90.98 113.77 87.87
  Q 113.14 87.58 113.77 87.29
  Z"
/>
<rect fill="#bcdef8" x="-4.41" y="-4.10" transform="translate(455.60,68.10) rotate(-0.7)" width="8.82" height="8.20" rx="3.70"/>
<path fill="#bcdef8" d="
  M 218.57 85.82
  C 224.42 87.86 225.13 92.77 224.64 98.75
  C 223.68 110.55 209.52 111.07 200.92 108.80
  Q 200.48 108.68 200.48 108.23
  L 200.48 65.80
  Q 200.48 65.42 200.86 65.34
  Q 209.16 63.59 216.22 65.27
  C 225.72 67.52 226.34 80.59 218.52 85.32
  Q 218.01 85.62 218.57 85.82
  Z
  M 205.72 69.64
  L 205.70 83.00
  A 0.63 0.63 0.0 0 0 206.33 83.63
  L 211.31 83.64
  A 7.17 6.15 0.1 0 0 218.49 77.50
  L 218.49 75.18
  A 7.17 6.15 0.1 0 0 211.33 69.02
  L 206.35 69.01
  A 0.63 0.63 0.0 0 0 205.72 69.64
  Z
  M 205.68 88.61
  L 205.62 104.43
  A 0.63 0.63 0.0 0 0 206.25 105.06
  L 211.90 105.08
  A 7.64 7.33 0.2 0 0 219.57 97.77
  L 219.57 95.35
  A 7.64 7.33 0.2 0 0 211.96 88.00
  L 206.31 87.98
  A 0.63 0.63 0.0 0 0 205.68 88.61
  Z"
/>
<path fill="#bcdef8" d="
  M 268.72 69.56
  L 260.02 69.55
  Q 259.49 69.55 259.49 69.02
  L 259.46 65.42
  Q 259.46 65.05 259.83 65.05
  L 274.01 65.04
  A 0.47 0.47 0.0 0 1 274.48 65.51
  Q 274.42 83.52 274.46 101.50
  C 274.47 106.52 281.96 105.48 284.93 104.27
  A 0.23 0.23 0.0 0 1 285.24 104.48
  L 285.26 108.26
  Q 285.26 108.52 285.01 108.61
  C 279.08 110.89 269.21 110.59 269.24 102.00
  Q 269.29 86.01 269.18 70.02
  Q 269.18 69.56 268.72 69.56
  Z"
/>
<path fill="#bcdef8" d="
  M 507.77 108.98
  L 503.09 109.00
  A 0.31 0.31 0.0 0 1 502.78 108.69
  L 502.74 65.35
  A 0.31 0.31 0.0 0 1 503.05 65.04
  L 507.83 65.10
  A 0.31 0.31 0.0 0 1 508.14 65.41
  L 508.00 90.18
  A 0.31 0.31 0.0 0 0 508.53 90.40
  L 521.25 77.82
  A 0.31 0.31 0.0 0 1 521.47 77.73
  L 526.87 77.73
  A 0.31 0.31 0.0 0 1 527.09 78.26
  L 512.78 92.59
  A 0.31 0.31 0.0 0 0 512.78 93.02
  L 527.37 108.44
  A 0.31 0.31 0.0 0 1 527.15 108.96
  L 521.88 109.03
  A 0.31 0.31 0.0 0 1 521.66 108.93
  L 508.54 95.29
  A 0.31 0.31 0.0 0 0 508.00 95.51
  L 508.08 108.67
  A 0.31 0.31 0.0 0 1 507.77 108.98
  Z"
/>
<path fill="#bcdef8" d="
  M 327.22 77.25
  L 327.21 67.74
  Q 327.21 67.45 327.51 67.45
  L 331.72 67.46
  Q 332.23 67.46 332.23 67.97
  L 332.20 77.22
  Q 332.20 77.74 332.72 77.74
  L 343.74 77.74
  Q 344.25 77.74 344.25 78.25
  L 344.28 81.48
  Q 344.28 81.99 343.77 81.99
  L 332.51 82.01
  A 0.31 0.30 90.0 0 0 332.21 82.32
  Q 332.26 91.12 332.37 99.25
  Q 332.41 102.01 332.80 103.00
  C 334.17 106.51 341.57 105.16 343.97 104.30
  A 0.21 0.21 0.0 0 1 344.25 104.49
  L 344.26 108.30
  Q 344.26 108.60 343.97 108.70
  C 337.32 110.91 327.12 110.88 327.19 101.02
  Q 327.26 91.73 327.20 82.48
  Q 327.20 82.00 326.72 82.00
  L 319.75 82.00
  Q 319.26 82.00 319.26 81.50
  L 319.29 78.23
  Q 319.29 77.75 319.77 77.75
  L 326.75 77.73
  Q 327.23 77.73 327.22 77.25
  Z"
/>
<path fill="#4e5964" d="
  M 205.72 69.64
  A 0.63 0.63 0.0 0 1 206.35 69.01
  L 211.33 69.02
  A 7.17 6.15 0.1 0 1 218.49 75.18
  L 218.49 77.50
  A 7.17 6.15 0.1 0 1 211.31 83.64
  L 206.33 83.63
  A 0.63 0.63 0.0 0 1 205.70 83.00
  L 205.72 69.64
  Z"
/>
<path fill="#bcdef8" d="
  M 113.77 87.87
  Q 120.59 90.98 118.34 98.59
  C 116.03 106.40 99.86 106.11 94.30 103.68
  C 92.38 102.85 91.88 101.44 91.88 99.33
  Q 91.87 87.45 91.88 75.75
  A 2.55 2.54 80.3 0 1 93.57 73.35
  C 100.34 70.93 119.48 69.90 117.75 82.28
  Q 117.27 85.71 113.77 87.29
  Q 113.14 87.58 113.77 87.87
  Z
  M 101.04 79.45
  L 101.04 84.55
  A 0.46 0.46 0.0 0 0 101.51 85.01
  L 104.79 85.00
  A 3.72 2.73 -0.1 0 0 108.50 82.26
  L 108.50 81.70
  A 3.72 2.73 -0.1 0 0 104.77 78.98
  L 101.49 78.99
  A 0.46 0.46 0.0 0 0 101.04 79.45
  Z
  M 101.00 92.52
  L 100.98 97.42
  A 0.59 0.59 0.0 0 0 101.56 98.01
  L 105.22 98.03
  A 4.07 2.61 0.3 0 0 109.31 95.44
  L 109.31 94.58
  A 4.07 2.61 0.3 0 0 105.26 91.95
  L 101.60 91.93
  A 0.59 0.59 0.0 0 0 101.00 92.52
  Z"
/>
<path fill="#bcdef8" d="
  M 254.12 98.54
  A 11.16 11.16 0.0 0 1 242.96 109.70
  L 241.06 109.70
  A 11.16 11.16 0.0 0 1 229.90 98.54
  L 229.90 88.26
  A 11.16 11.16 0.0 0 1 241.06 77.10
  L 242.96 77.10
  A 11.16 11.16 0.0 0 1 254.12 88.26
  L 254.12 98.54
  Z
  M 248.85 88.03
  A 6.41 6.41 0.0 0 0 242.44 81.62
  L 241.58 81.62
  A 6.41 6.41 0.0 0 0 235.17 88.03
  L 235.17 98.77
  A 6.41 6.41 0.0 0 0 241.58 105.18
  L 242.44 105.18
  A 6.41 6.41 0.0 0 0 248.85 98.77
  L 248.85 88.03
  Z"
/>
<path fill="#bcdef8" d="
  M 297.70 95.55
  Q 294.76 95.55 295.81 98.29
  L 297.11 101.69
  A 5.27 5.26 -6.0 0 0 301.22 105.01
  Q 306.88 105.88 312.48 104.43
  A 0.18 0.18 0.0 0 1 312.70 104.60
  L 312.73 108.47
  Q 312.73 108.71 312.50 108.77
  C 302.22 111.19 291.58 109.86 290.62 97.01
  C 289.87 87.02 291.51 75.06 305.03 77.16
  C 313.93 78.55 315.01 87.83 314.37 95.15
  Q 314.34 95.55 313.94 95.55
  L 297.70 95.55
  Z
  M 295.98 91.52
  L 309.02 91.46
  A 0.36 0.36 0.0 0 0 309.37 91.09
  L 309.37 90.09
  A 8.80 6.36 89.7 0 0 302.96 81.33
  L 301.92 81.33
  A 8.80 6.36 89.7 0 0 295.61 90.17
  L 295.61 91.17
  A 0.36 0.36 0.0 0 0 295.98 91.52
  Z"
/>
<path fill="#bcdef8" d="
  M 367.31 89.28
  Q 368.99 89.45 368.80 87.78
  L 368.39 84.13
  A 2.69 2.68 -88.6 0 0 366.16 81.78
  Q 359.56 80.70 353.26 82.97
  A 0.74 0.74 0.0 0 1 352.27 82.28
  L 352.28 79.70
  Q 352.29 78.77 353.18 78.50
  C 359.16 76.66 373.42 74.59 373.69 84.76
  Q 373.90 92.59 373.74 107.27
  A 0.74 0.73 79.8 0 1 373.28 107.94
  C 365.93 110.93 353.29 111.27 350.72 101.52
  Q 349.42 96.60 352.87 93.14
  C 356.24 89.76 362.87 88.81 367.31 89.28
  Z
  M 368.91 104.44
  L 368.67 94.08
  A 0.82 0.82 0.0 0 0 367.83 93.28
  L 363.13 93.39
  A 7.50 5.77 -1.3 0 0 355.77 99.33
  L 355.78 99.79
  A 7.50 5.77 -1.3 0 0 363.41 105.39
  L 368.10 105.28
  A 0.82 0.82 0.0 0 0 368.91 104.44
  Z"
/>
<path fill="#bcdef8" d="
  M 398.04 81.87
  Q 393.40 81.10 390.00 82.04
  C 384.66 83.51 387.94 88.80 391.49 90.02
  C 398.28 92.36 406.84 94.71 404.14 104.33
  C 402.11 111.54 388.02 110.00 382.95 108.05
  Q 382.74 107.97 382.74 107.75
  L 382.77 103.85
  Q 382.77 103.55 383.05 103.65
  Q 389.79 106.05 395.73 104.96
  C 400.87 104.01 400.38 98.21 395.94 96.55
  C 390.40 94.47 382.49 92.77 382.06 85.53
  C 381.44 75.02 397.03 76.42 403.26 78.39
  Q 403.72 78.53 403.72 79.01
  L 403.72 87.25
  Q 403.72 87.98 403.00 87.97
  L 399.25 87.96
  Q 398.56 87.95 398.56 87.25
  L 398.57 82.49
  Q 398.57 81.95 398.04 81.87
  Z"
/>
<path fill="#bcdef8" d="
  M 478.03 82.32
  A 0.71 0.71 0.0 0 0 477.52 83.00
  L 477.53 108.73
  Q 477.53 109.00 477.26 109.00
  L 472.74 109.00
  A 0.26 0.26 0.0 0 1 472.48 108.74
  L 472.48 79.73
  Q 472.48 78.87 473.30 78.60
  C 480.10 76.42 494.59 74.42 494.95 85.48
  Q 495.33 97.17 495.23 108.59
  Q 495.22 109.00 494.81 109.00
  L 490.53 109.00
  Q 490.22 109.00 490.22 108.68
  Q 490.21 99.01 490.32 89.00
  Q 490.35 85.56 489.17 83.35
  C 487.73 80.65 480.23 81.66 478.03 82.32
  Z"
/>
<path fill="#bcdef8" d="
  M 458.71 108.99
  L 454.34 108.99
  A 0.41 0.41 0.0 0 1 453.93 108.58
  L 453.97 82.42
  A 0.41 0.41 0.0 0 0 453.56 82.01
  L 443.60 82.00
  A 0.41 0.41 0.0 0 1 443.19 81.59
  L 443.23 78.15
  A 0.41 0.41 0.0 0 1 443.64 77.74
  L 458.58 77.74
  A 0.41 0.41 0.0 0 1 458.99 78.15
  L 459.12 108.58
  A 0.41 0.41 0.0 0 1 458.71 108.99
  Z"
/>
<path fill="#4e5964" d="
  M 101.04 79.45
  A 0.46 0.46 0.0 0 1 101.49 78.99
  L 104.77 78.98
  A 3.72 2.73 -0.1 0 1 108.50 81.70
  L 108.50 82.26
  A 3.72 2.73 -0.1 0 1 104.79 85.00
  L 101.51 85.01
  A 0.46 0.46 0.0 0 1 101.04 84.55
  L 101.04 79.45
  Z"
/>
<path fill="#4e5964" d="
  M 295.98 91.52
  A 0.36 0.36 0.0 0 1 295.61 91.17
  L 295.61 90.17
  A 8.80 6.36 89.7 0 1 301.92 81.33
  L 302.96 81.33
  A 8.80 6.36 89.7 0 1 309.37 90.09
  L 309.37 91.09
  A 0.36 0.36 0.0 0 1 309.02 91.46
  L 295.98 91.52
  Z"
/>
<rect fill="#4e5964" x="235.17" y="81.62" width="13.68" height="23.56" rx="6.41"/>
<path fill="#4e5964" d="
  M 205.68 88.61
  A 0.63 0.63 0.0 0 1 206.31 87.98
  L 211.96 88.00
  A 7.64 7.33 0.2 0 1 219.57 95.35
  L 219.57 97.77
  A 7.64 7.33 0.2 0 1 211.90 105.08
  L 206.25 105.06
  A 0.63 0.63 0.0 0 1 205.62 104.43
  L 205.68 88.61
  Z"
/>
<path fill="#4e5964" d="
  M 101.00 92.52
  A 0.59 0.59 0.0 0 1 101.60 91.93
  L 105.26 91.95
  A 4.07 2.61 0.3 0 1 109.31 94.58
  L 109.31 95.44
  A 4.07 2.61 0.3 0 1 105.22 98.03
  L 101.56 98.01
  A 0.59 0.59 0.0 0 1 100.98 97.42
  L 101.00 92.52
  Z"
/>
<path fill="#4e5964" d="
  M 368.91 104.44
  A 0.82 0.82 0.0 0 1 368.10 105.28
  L 363.41 105.39
  A 7.50 5.77 -1.3 0 1 355.78 99.79
  L 355.77 99.33
  A 7.50 5.77 -1.3 0 1 363.13 93.39
  L 367.83 93.28
  A 0.82 0.82 0.0 0 1 368.67 94.08
  L 368.91 104.44
  Z"
/>
<circle fill="#bcdef8" cx="423.48" cy="105.04" r="4.87"/>
<path fill="#bcdef8" d="
  M 235.67 141.42
  L 235.69 156.57
  A 0.42 0.42 0.0 0 1 235.27 156.99
  L 233.41 157.00
  A 0.42 0.42 0.0 0 1 232.99 156.58
  L 232.91 141.46
  A 0.42 0.42 0.0 0 0 232.50 141.04
  L 228.59 140.97
  A 0.42 0.42 0.0 0 1 228.18 140.59
  L 228.07 139.48
  A 0.42 0.42 0.0 0 1 228.48 139.02
  L 239.83 138.99
  A 0.42 0.42 0.0 0 1 240.25 139.44
  L 240.16 140.61
  A 0.42 0.42 0.0 0 1 239.74 141.00
  L 236.09 141.00
  A 0.42 0.42 0.0 0 0 235.67 141.42
  Z"
/>
<path fill="#bcdef8" d="
  M 289.41 147.25
  Q 289.25 147.33 289.40 147.43
  Q 292.56 149.58 292.39 152.51
  C 292.10 157.38 287.47 157.27 283.23 156.94
  Q 282.60 156.89 282.63 156.26
  L 282.66 155.84
  A 0.87 0.87 0.0 0 1 283.55 155.02
  C 286.44 155.09 290.52 155.13 289.40 151.00
  C 288.82 148.85 286.22 148.99 284.01 148.93
  A 0.70 0.70 0.0 0 1 283.35 148.09
  L 283.44 147.65
  A 0.78 0.78 0.0 0 1 284.27 147.03
  C 290.76 147.57 289.35 139.50 284.51 141.25
  Q 282.49 141.98 282.47 144.13
  Q 282.39 150.21 282.26 156.26
  Q 282.24 157.01 281.49 157.01
  L 280.03 156.99
  Q 279.36 156.98 279.39 156.31
  Q 279.58 151.57 279.44 146.51
  Q 279.19 137.99 287.76 139.06
  C 291.00 139.47 293.31 145.40 289.41 147.25
  Z"
/>
<path fill="#bcdef8" d="
  M 315.77 151.00
  C 315.77 153.32 315.85 154.46 318.32 155.11
  Q 318.85 155.24 318.97 155.77
  Q 319.09 156.27 318.74 156.65
  Q 318.48 156.93 317.96 156.97
  Q 313.17 157.26 313.15 152.25
  Q 313.13 145.73 313.16 139.34
  Q 313.16 139.03 313.47 139.03
  L 315.49 139.00
  A 0.28 0.28 0.0 0 1 315.77 139.28
  Q 315.78 145.02 315.77 151.00
  Z"
/>
<path fill="#bcdef8" d="
  M 442.88 146.63
  C 443.20 140.86 448.03 138.10 453.42 139.19
  A 0.59 0.59 0.0 0 1 453.87 139.95
  L 453.78 140.22
  Q 453.53 141.00 452.71 140.98
  C 442.97 140.78 443.15 155.75 453.14 155.02
  A 0.65 0.65 0.0 0 1 453.83 155.71
  L 453.80 156.06
  A 1.05 1.05 0.0 0 1 452.80 157.03
  Q 442.27 157.50 442.88 146.63
  Z"
/>
<path fill="#bcdef8" d="
  M 461.10 154.28
  Q 462.02 154.88 463.07 155.14
  A 0.74 0.73 10.4 0 1 463.62 155.93
  Q 463.50 157.04 462.26 157.00
  Q 458.01 156.88 458.00 152.75
  Q 457.99 145.97 457.91 139.29
  Q 457.90 138.99 458.21 139.00
  L 460.23 139.04
  Q 460.42 139.05 460.42 139.23
  L 460.52 153.23
  Q 460.53 153.91 461.10 154.28
  Z"
/>
<circle fill="#bcdef8" cx="468.53" cy="140.51" r="1.61"/>
<path fill="#bcdef8" d="
  M 496.04 149.51
  Q 499.71 152.09 498.61 156.78
  Q 498.55 157.00 498.33 157.00
  L 496.50 156.98
  A 0.42 0.41 -84.7 0 1 496.10 156.49
  Q 497.10 151.11 491.81 150.96
  Q 491.29 150.95 491.30 151.47
  L 491.34 156.37
  Q 491.35 156.99 490.73 156.99
  L 489.18 156.99
  Q 488.61 157.00 488.61 156.43
  L 488.60 139.46
  Q 488.60 139.02 489.04 139.02
  L 490.76 139.01
  Q 491.26 139.01 491.27 139.51
  L 491.31 148.28
  Q 491.31 148.84 491.85 148.99
  Q 492.39 149.13 492.92 148.92
  Q 493.35 148.75 493.67 148.15
  Q 494.66 146.29 495.43 144.66
  A 1.16 1.16 0.0 0 1 496.49 144.00
  L 498.24 144.02
  Q 498.82 144.03 498.52 144.53
  L 495.90 148.88
  Q 495.68 149.26 496.04 149.51
  Z"
/>
<path fill="#bcdef8" d="
  M 339.78 146.49
  C 339.72 149.51 338.59 154.83 343.18 155.10
  Q 343.69 155.13 343.63 155.64
  L 343.59 156.05
  Q 343.49 156.95 342.59 157.00
  C 335.99 157.38 337.12 150.67 337.24 146.54
  Q 337.25 146.06 336.77 146.01
  L 335.40 145.89
  Q 334.57 145.82 335.23 145.30
  L 339.25 142.19
  A 0.36 0.36 0.0 0 1 339.83 142.51
  L 339.74 143.32
  A 0.61 0.60 -86.5 0 0 340.33 143.99
  L 342.96 144.03
  Q 343.56 144.04 343.55 144.63
  L 343.54 145.01
  Q 343.52 146.00 342.53 146.00
  L 340.27 146.00
  Q 339.79 146.00 339.78 146.49
  Z"
/>
<path fill="#bcdef8" d="
  M 251.48 153.61
  L 251.49 144.52
  Q 251.49 144.03 251.98 144.02
  L 253.50 144.01
  Q 253.99 144.01 253.99 144.50
  L 253.97 156.47
  Q 253.97 156.88 253.56 156.91
  C 250.36 157.13 245.88 157.57 244.26 155.43
  C 242.77 153.47 243.22 146.77 243.35 144.34
  Q 243.37 144.01 243.70 144.01
  L 245.75 144.02
  Q 245.98 144.03 245.98 144.25
  L 245.98 152.73
  A 2.18 2.17 2.5 0 0 247.97 154.89
  L 249.89 155.06
  Q 251.47 155.19 251.48 153.61
  Z"
/>
<path fill="#bcdef8" d="
  M 265.19 153.77
  Q 265.61 152.53 264.04 151.89
  C 261.62 150.91 256.95 149.89 258.42 146.00
  C 259.45 143.27 264.27 143.99 266.52 144.02
  Q 267.44 144.03 267.44 144.95
  L 267.44 145.31
  A 0.69 0.68 -0.0 0 1 266.75 145.99
  L 262.12 146.01
  A 1.09 1.07 13.5 0 0 261.16 146.59
  Q 260.43 148.01 262.07 148.62
  C 263.82 149.29 267.42 150.21 267.80 152.23
  C 268.88 158.08 262.45 157.05 259.06 156.97
  Q 258.19 156.95 258.11 156.08
  L 258.07 155.65
  A 0.48 0.48 0.0 0 1 258.53 155.12
  L 263.65 154.92
  A 1.68 1.68 0.0 0 0 265.19 153.77
  Z"
/>
<path fill="#bcdef8" d="
  M 309.11 150.51
  A 6.62 6.62 0.0 0 1 302.49 157.13
  A 6.62 6.62 0.0 0 1 295.87 150.51
  A 6.62 6.62 0.0 0 1 302.49 143.89
  A 6.62 6.62 0.0 0 1 309.11 150.51
  Z
  M 302.4887 154.9899
  A 4.48 3.88 90.4 0 0 306.3999 150.5371
  A 4.48 3.88 90.4 0 0 302.5513 146.0301
  A 4.48 3.88 90.4 0 0 298.6401 150.4829
  A 4.48 3.88 90.4 0 0 302.4887 154.9899
  Z"
/>
<path fill="#bcdef8" d="
  M 329.81 146.92
  Q 327.89 144.96 325.61 146.90
  C 321.95 150.01 325.07 157.19 330.10 154.32
  Q 330.72 153.96 331.27 154.42
  L 332.08 155.11
  A 0.50 0.50 0.0 0 1 332.02 155.92
  Q 328.92 157.82 325.51 156.79
  C 319.16 154.88 320.07 144.34 327.27 143.92
  C 335.75 143.43 333.26 152.93 325.71 150.80
  A 0.69 0.69 0.0 0 1 325.23 149.97
  L 325.33 149.59
  A 0.81 0.81 0.0 0 1 326.23 148.99
  Q 328.24 149.27 329.75 148.04
  A 0.76 0.76 0.0 0 0 329.81 146.92
  Z"
/>
<path fill="#bcdef8" d="
  M 355.22 154.52
  Q 355.25 151.74 355.10 149.01
  C 354.90 145.16 350.93 146.02 348.47 145.98
  A 0.72 0.71 0.8 0 1 347.76 145.26
  L 347.76 144.95
  Q 347.77 144.06 348.66 144.04
  C 352.35 143.93 357.09 143.34 357.66 147.64
  Q 357.97 149.93 357.69 156.49
  Q 357.67 156.99 357.17 156.99
  C 354.05 157.01 346.78 158.32 346.83 153.08
  C 346.86 149.34 350.39 148.29 353.47 149.30
  Q 354.41 149.61 354.37 150.59
  L 354.33 151.47
  A 0.37 0.36 -70.0 0 1 353.74 151.75
  Q 351.74 150.21 349.81 151.88
  A 1.76 1.75 25.0 0 0 350.93 154.96
  L 354.70 155.02
  Q 355.21 155.03 355.22 154.52
  Z"
/>
<path fill="#bcdef8" d="
  M 367.53 154.78
  Q 369.62 153.19 367.62 152.19
  Q 365.50 151.13 363.60 150.42
  A 2.91 2.89 -1.5 0 1 361.97 148.88
  C 359.45 143.12 367.49 143.88 370.24 144.09
  A 0.65 0.64 -83.8 0 1 370.83 144.83
  L 370.79 145.11
  Q 370.67 145.99 369.77 146.00
  L 365.52 146.01
  A 1.21 1.21 0.0 0 0 364.34 146.94
  Q 364.05 148.14 365.32 148.61
  Q 367.41 149.37 369.48 150.27
  Q 370.64 150.78 370.94 151.99
  C 372.48 158.17 365.66 157.06 362.28 156.97
  Q 361.40 156.94 361.34 156.06
  L 361.32 155.78
  A 0.66 0.66 0.0 0 1 361.97 155.08
  L 367.04 154.95
  A 0.82 0.78 -62.8 0 0 367.53 154.78
  Z"
/>
<path fill="#bcdef8" d="
  M 393.27 148.37
  Q 393.65 152.39 393.28 156.46
  Q 393.24 156.96 392.74 156.98
  C 390.74 157.05 388.79 156.98 386.82 157.05
  C 379.99 157.29 381.06 147.03 388.88 149.22
  A 1.54 1.51 3.8 0 1 389.97 150.44
  L 390.11 151.32
  A 0.47 0.47 0.0 0 1 389.37 151.77
  Q 387.05 150.01 385.04 152.31
  A 1.56 1.55 -68.3 0 0 386.14 154.88
  L 389.98 155.05
  Q 390.57 155.08 390.61 154.48
  C 390.76 152.01 391.54 148.42 389.48 146.71
  C 388.14 145.60 385.87 146.03 384.19 145.97
  A 0.95 0.95 0.0 0 1 383.27 145.03
  L 383.27 144.67
  A 0.60 0.59 88.5 0 1 383.84 144.06
  C 387.54 143.94 392.78 143.02 393.27 148.37
  Z"
/>
<path fill="#bcdef8" d="
  M 412.96 153.71
  L 412.96 144.27
  A 0.26 0.26 0.0 0 1 413.23 144.01
  L 415.25 144.05
  A 0.20 0.20 0.0 0 1 415.45 144.25
  L 415.46 156.52
  Q 415.46 157.01 414.98 157.01
  L 408.42 156.98
  A 3.40 3.40 0.0 0 1 405.04 153.63
  L 404.89 144.30
  Q 404.89 143.99 405.20 144.00
  L 407.25 144.05
  Q 407.44 144.05 407.45 144.25
  L 407.50 152.89
  A 2.02 2.02 0.0 0 0 409.38 154.89
  L 411.53 155.04
  Q 412.96 155.15 412.96 153.71
  Z"
/>
<path fill="#bcdef8" d="
  M 422.69 147.07
  L 422.70 156.52
  Q 422.70 156.99 422.23 156.99
  L 420.47 157.00
  A 0.52 0.52 0.0 0 1 419.95 156.47
  L 419.99 144.49
  Q 419.99 144.06 420.42 144.04
  C 424.69 143.92 430.29 142.85 430.64 148.26
  Q 430.78 150.39 430.68 156.53
  Q 430.67 156.99 430.22 156.99
  L 428.47 157.00
  Q 427.94 157.00 427.94 156.47
  L 427.99 147.90
  A 1.74 1.74 0.0 0 0 426.41 146.16
  L 423.94 145.93
  Q 422.69 145.82 422.69 147.07
  Z"
/>
<path fill="#bcdef8" d="
  M 467.02 146.02
  L 466.05 145.98
  Q 465.43 145.95 465.54 145.34
  C 465.84 143.68 468.20 143.87 469.57 144.07
  Q 470.02 144.14 470.03 144.60
  L 470.07 156.46
  Q 470.08 156.99 469.54 156.99
  L 467.95 156.99
  Q 467.42 156.99 467.42 156.45
  L 467.49 146.52
  Q 467.49 146.04 467.02 146.02
  Z"
/>
<path fill="#bcdef8" d="
  M 474.43 149.75
  C 474.32 144.38 480.99 142.84 484.85 145.06
  A 0.55 0.55 0.0 0 1 484.95 145.94
  L 484.19 146.65
  A 0.97 0.96 40.9 0 1 483.00 146.73
  C 476.19 142.04 474.82 158.64 483.19 154.26
  Q 483.71 153.99 484.17 154.36
  L 484.47 154.61
  A 1.23 1.22 -29.5 0 1 483.87 156.77
  Q 474.62 158.13 474.43 149.75
  Z"
/>
<ellipse fill="#4e5964" cx="0.00" cy="0.00" transform="translate(302.52,150.51) rotate(90.4)" rx="4.48" ry="3.88"/>
</svg>
